<?xml version="1.0" encoding="UTF-8" standalone="no"?><!DOCTYPE svg PUBLIC "-//W3C//DTD SVG 1.1//EN" "http://www.w3.org/Graphics/SVG/1.1/DTD/svg11.dtd"><svg width="100%" height="100%" viewBox="0 0 552 753" version="1.1" xmlns="http://www.w3.org/2000/svg" xmlns:xlink="http://www.w3.org/1999/xlink" xml:space="preserve" xmlns:serif="http://www.serif.com/" style="fill-rule:evenodd;clip-rule:evenodd;stroke-linejoin:round;stroke-miterlimit:2;"><g id="Layer-1" serif:id="Layer 1"><path d="M551.952,227.067c-0,-24.367 -4.507,-44.275 -14.982,-67.601l-0,-159.466l-521.989,0l-0,159.466c-10.474,23.326 -14.981,43.234 -14.981,67.601c0,43.22 28.195,54.654 15.642,86.653c-9.529,24.286 -16.106,51.273 -15.575,76.223c0.38,17.812 2.554,35.122 5.458,50.24l-0.007,0.007c3.263,16.845 2.528,27.541 0.118,34.782c-5.636,16.949 0.775,31.963 8.33,39.957c9.858,10.43 23.958,9.19 30.764,21.193c4.642,8.186 3.583,16.21 3.564,28.316c-0.11,71.114 33.258,151.774 149.276,163.039c25.551,19.391 56.378,25.407 78.404,25.407c22.027,-0 52.856,-6.016 78.408,-25.407c116.017,-11.265 149.386,-91.925 149.275,-163.039c-0.018,-12.106 -1.078,-20.13 3.566,-28.316c6.806,-12.003 20.904,-10.763 30.763,-21.193c7.555,-7.994 13.966,-23.008 8.33,-39.957c-2.41,-7.241 -3.144,-17.937 0.114,-34.782l-0.003,-0.007c2.904,-15.118 5.078,-32.428 5.458,-50.24c0.528,-24.95 -6.049,-51.937 -15.575,-76.223c-12.556,-31.999 15.642,-43.433 15.642,-86.653" style="fill:#fff;fill-rule:nonzero;"/><path d="M480.579,259.229c-0,-11.737 10.356,-17.458 13.526,-17.782c8.512,-0.872 18.695,3.447 20.514,11.884c0.402,1.86 3.592,2.274 4.282,0.421c3.798,-10.127 2.617,-25.888 -7.193,-35.292c6.924,-13.449 6.137,-25.142 1.859,-33.372c-1.406,-3.041 -4.023,-5.359 -7.293,-6.526l-0,-145.108l-460.581,-0l-0,145.101c-3.278,1.166 -5.898,3.484 -7.312,6.533c-4.273,8.23 -5.06,19.923 1.864,33.372c-9.813,9.404 -10.991,25.165 -7.193,35.292c0.69,1.853 3.879,1.439 4.281,-0.421c1.816,-8.437 12.003,-12.756 20.514,-11.884c3.17,0.324 13.523,6.045 13.523,17.782c-0,22.447 -41.426,73.344 -40.222,129.866c0.627,29.688 7.112,60.153 13.471,77.544c-5.44,4.222 -8.316,10.312 -9.508,14.962l0.015,0.007c-0.281,1.049 -0.446,2.229 -0.469,3.558c-0.21,4.001 2.336,9.08 4.761,10.638c0.901,0.583 1.842,0.066 2.09,-0.392c3.864,-7.079 10.246,-11.544 14.874,-13.132c15.051,6.747 23.178,19.488 22.44,40.799c-2.941,84.896 1.325,110.983 47.836,146.378c16.078,12.231 53.805,28.316 85.797,24.735c0.037,2.65 1.167,5.396 3.92,7.353c13.073,9.271 34.351,17.885 59.599,17.885l0.004,-0c25.249,-0 46.527,-8.614 59.603,-17.885c2.75,-1.957 3.88,-4.703 3.916,-7.353c31.993,3.581 69.72,-12.504 85.793,-24.735c46.516,-35.395 50.786,-61.482 47.841,-146.378c-0.738,-21.311 7.389,-34.052 22.44,-40.799c4.628,1.588 11.01,6.053 14.874,13.132c0.248,0.458 1.189,0.975 2.089,0.392c2.421,-1.558 4.971,-6.637 4.761,-10.638c-0.022,-1.329 -0.188,-2.509 -0.468,-3.558l0.011,-0.007c-1.189,-4.65 -4.064,-10.74 -9.505,-14.962c6.36,-17.391 12.841,-47.856 13.472,-77.544c1.203,-56.522 -40.226,-107.419 -40.226,-129.866" style="fill:#fff;fill-rule:nonzero;"/><path d="M432.764,474.419c-0,86.594 -70.196,156.786 -156.79,156.786c-86.59,0 -156.786,-70.192 -156.786,-156.786l-0,-362.572l313.576,0l-0,362.572Zm-323.379,-372.375l-0,372.375c-0,92.004 74.585,166.589 166.589,166.589c92.005,0 166.589,-74.585 166.589,-166.589l-0,-372.375l-333.178,0Z" style="fill:#de9818;fill-rule:nonzero;"/><path d="M275.974,572.41c-54.118,-0 -97.991,-43.869 -97.991,-97.991l-0,-303.777l195.986,-0l-0,303.777c-0,54.122 -43.872,97.991 -97.995,97.991m146.991,-97.991l-0,-352.776l-293.978,-0l-0,352.776c-0,81.183 65.808,146.99 146.987,146.99c81.184,-0 146.991,-65.807 146.991,-146.99" style="fill:#00723f;fill-rule:nonzero;"/><path d="M491.559,47.553l-431.169,-0l-0,148.157c3.266,1.277 6.536,3.329 9.799,6.142l-0,-144.504l411.571,-0l-0,144.91c3.267,-2.821 6.533,-5.286 9.799,-6.563l-0,-148.142Z" style="fill:#00723f;fill-rule:nonzero;"/><path d="M212.086,205.402c-5.47,1.462 -17.849,4.687 -24.304,6.363l0,29.423c8.285,-6.555 21.695,-17.162 30.312,-23.96c-2.369,-3.713 -4.384,-7.67 -6.008,-11.826m11.039,18.764c-10.338,6.894 -27.213,18.107 -35.343,23.503l0,49.591c10.257,-15.118 28.637,-42.209 43.813,-64.531c-3.063,-2.606 -5.905,-5.462 -8.47,-8.563m141.045,250.253l0,-168.287c-9.529,-12.283 -33.225,-42.828 -52.173,-67.313c-3.134,1.934 -6.43,3.624 -9.87,5.041c12.007,40.031 36.196,120.949 36.196,120.949c0.513,1.727 -3.698,3.351 -4.396,1.425c0,-0 -27.928,-79.649 -41.739,-119.141c-5.2,1.256 -10.626,1.942 -16.214,1.942c-5.554,-0 -10.951,-0.679 -16.125,-1.927c-13.833,39.507 -41.799,119.148 -41.799,119.148c-0.701,1.926 -4.909,0.302 -4.396,-1.433c0,-0 24.22,-80.887 36.252,-120.926c-3.444,-1.417 -6.747,-3.107 -9.884,-5.041c-19.012,24.566 -42.781,55.215 -52.24,67.409l0,168.154c0,48.711 39.484,88.196 88.192,88.196c48.712,-0 88.196,-39.485 88.196,-88.196m0,-262.676c-6.518,-1.698 -18.901,-4.924 -24.297,-6.37c-1.616,4.148 -3.628,8.097 -5.983,11.81c8.582,6.761 21.961,17.347 30.28,23.924l0,-29.364Zm0,-31.305l-19.599,-0c0,5.986 -0.771,11.787 -2.21,17.317c4.809,1.845 15.287,5.934 21.809,8.481l0,-25.798Zm0,67.165c-8.186,-5.433 -25.017,-16.616 -35.31,-23.481c-2.554,3.093 -5.389,5.95 -8.441,8.548c15.133,22.263 33.468,49.28 43.751,64.441l0,-49.508Zm-156.79,-67.165l-19.598,-0l0,25.835c6.474,-2.532 16.941,-6.614 21.816,-8.481c-1.443,-5.544 -2.218,-11.354 -2.218,-17.354" style="fill:#de9818;fill-rule:nonzero;"/><path d="M297.547,216.77l-4.444,-0.93l-2.484,3.802l-2.841,-3.728l-4.09,0.856l0.58,-4.296l-3.448,-2.635l3.459,-2.555l-0.591,-4.377l4.33,0.65l2.601,-3.514l2.746,3.492l4.182,-0.628l-0.512,4.275l3.384,2.657l-3.433,2.244l0.561,4.687Zm-6.928,-31.431c-13.53,-0 -24.499,10.969 -24.499,24.5c-0,13.531 10.969,24.499 24.499,24.499c13.531,-0 24.5,-10.968 24.5,-24.499c-0,-13.531 -10.969,-24.5 -24.5,-24.5" style="fill:#1f419a;fill-rule:nonzero;"/><path d="M255.453,209.838c0,-10.784 7.684,-23.88 23.676,-25.231c0.602,-0.051 0.713,-1.092 0,-1.232c-11.116,-2.222 -20.849,3.226 -27.496,3.455c-5.558,0.192 -7.341,-1.949 -15.697,-0.901c-5.935,0.753 -12.523,6.511 -13.523,7.581c-0.377,0.399 0.365,1.218 0.812,0.959c1.587,-0.892 5.75,-3.734 11.792,-4.414c6.042,-0.686 12.848,2.126 15.232,3.477c1.425,0.804 0.985,4.326 -1.092,3.986c-1.968,-0.332 -7.537,-1.986 -11.203,-1.646c-5.462,0.517 -10.164,4.872 -11.345,6.119c-0.399,0.421 0.483,1.403 0.993,0.968c1.827,-1.566 4.34,-3.093 7.958,-3.366c5.528,-0.414 8.968,1.159 11.256,2.753c1.495,1.048 1.1,3.934 -0.358,3.602c-1.638,-0.369 -4.978,-1.122 -8.049,-0.701c-3.056,0.413 -6.626,2.738 -7.216,3.772c-0.251,0.435 0.498,1.129 0.86,0.842c1.484,-1.174 4.672,-1.868 7.626,-1.632c3.236,0.266 6.167,2.104 7.178,2.997c0.93,0.819 0.934,3.536 -0.79,3.181c-3.691,-0.745 -7.252,-0.649 -9.825,2.09c-0.391,0.42 0.063,1.025 0.52,0.774c1.115,-0.598 3.522,-0.841 5.74,-0.545c3.565,0.464 5.798,1.911 6.518,2.686c0.66,0.717 0.144,2.813 -0.768,2.783c-0.912,-0.029 -4.51,-1.1 -6.769,0.657c-0.461,0.354 -0.114,1.078 0.292,0.945c1.144,-0.399 4.141,0.118 6.141,1.941c3.736,3.403 17.472,13.317 31.213,10.571c0.691,-0.141 0.62,-1.1 -0.077,-1.174c-16.686,-1.735 -23.599,-15.169 -23.599,-25.297" style="fill:#231f20;fill-rule:nonzero;"/><path d="M146.094,362.97l17.517,0c1.211,0 2.152,0.045 2.332,0.303c0.177,0.258 0.314,1.203 0.314,2.443c-0,6.097 -3.089,10.777 -12.722,10.777c-7.529,0 -12.734,-3.816 -12.734,-10.002c-0,-3.092 1.17,-3.521 5.293,-3.521m-7.308,1.595c-0,10.083 4.979,18.203 16.004,18.203c3.985,0 7.304,-1.675 9.319,-3.699c2.871,-2.87 4.075,-7.255 4.075,-12.187l-0,-12.842l-1.436,-0c-0.266,3.01 -0.665,3.349 -5.507,3.349l-15.416,0c-4.839,0 -5.337,-0.339 -5.606,-3.69l-1.433,0l-0,10.866Zm7.039,-19.51l15.416,0c4.842,0 5.241,0.348 5.507,3.522l1.436,-0l-0,-12.623l-1.436,-0c-0.266,3.182 -0.665,3.521 -5.507,3.521l-15.416,-0c-4.839,-0 -5.337,-0.339 -5.606,-3.522l-1.433,0l-0,12.623l1.433,0c0.269,-3.173 0.767,-3.521 5.606,-3.521m12.478,167.77c-0,0 10.228,-3.462 11.622,-3.608c1.576,-0.155 2.813,0.568 3.393,2.642l1.388,-0.429c-1.2,-3.277 -2.241,-6.702 -3.175,-10.231l-1.395,0.332c0.517,2.791 0.55,4.061 -0.926,4.629c-1.314,0.486 -11.298,4.044 -11.298,4.044c-6.839,2.201 -11.751,0.718 -12.91,-4.215c-1.071,-4.56 1.985,-7.706 8.71,-9.699l9.271,-2.909c4.433,-1.387 4.85,-0.752 5.817,2.193l1.399,-0.325c-0.809,-4.288 -1.417,-8.466 -1.687,-12.459l-1.561,0.168c0.484,3.241 -0.59,3.544 -5.241,4.983l-10.146,3.123c-5.064,1.529 -7.74,3.425 -9.098,6.082c-1.306,2.466 -1.188,5.44 -0.561,8.202c2.605,11.457 12.25,8.725 16.398,7.477m-7.322,-44.149l9.231,3.056l-0,0.126l-9.231,3.093l-0,-6.275Zm-5.873,14.129c4.526,-1.632 9.859,-3.522 15.192,-5.323l8.337,-2.835l-0.627,-2.104l-23.038,-8.674c-4.03,-1.498 -4.44,-2.059 -4.753,-4.635l-1.433,0l-0,9.707l1.433,0l0.132,-1.077c0.225,-1.979 0.905,-2.06 3.145,-1.418c1.926,0.561 3.897,1.114 5.197,1.631l-0,7.596c-1.658,0.65 -3.987,1.461 -5.467,2.022c-1.927,0.731 -2.421,0.517 -2.642,-1.077l-0.365,-1.107l-1.433,0c0.078,4.231 0.306,8.311 0.735,12.195l1.461,-0.229c0.307,-1.579 -0.085,-3.168 4.126,-4.673m2.511,-150.763c4.838,0 7.215,-3.181 8.739,-6.613l0.627,-1.373c1.388,-3.094 3.001,-4.68 5.289,-4.68c2.511,-0 4.481,1.543 4.481,4.163c-0,3.654 -3.181,4.938 -5.828,5.795l0.314,1.549c2.691,-0.435 4.706,-0.731 6.319,-0.899c0.181,-0.517 0.362,-1.161 0.583,-1.854c0.451,-1.285 0.627,-2.656 0.627,-3.949c-0,-5.964 -3.985,-9.529 -8.784,-9.529c-4.255,-0 -6.857,3.048 -8.515,6.658l-0.402,0.856c-1.48,3.262 -2.96,4.85 -6.005,4.85c-2.554,-0 -4.749,-1.588 -4.749,-4.423c-0,-4.251 4.793,-6.694 7.259,-7.425l-0.583,-1.543c-2.691,0.473 -5.78,0.983 -6.946,1.329c-0.269,0.562 -0.628,1.372 -1.03,2.577c-0.406,1.157 -0.719,2.745 -0.719,4.332c-0,6.187 4.034,10.179 9.323,10.179m20.565,-120.489l-1.447,-0c-0.274,3.181 -0.591,3.52 -5.473,3.52l-15.561,-0c-4.883,-0 -5.2,-0.339 -5.47,-3.52l-1.447,-0l-0,12.622l1.447,-0c0.27,-3.174 0.587,-3.521 5.47,-3.521l15.561,-0c4.882,-0 5.199,0.347 5.473,3.521l1.447,-0l-0,-12.622Zm-0,48.054l-1.436,-0c-0.266,3.093 -0.665,3.432 -5.507,3.432l-15.416,-0c-4.839,-0 -5.337,-0.339 -5.606,-3.86l-1.433,-0l-0,21.207c1.211,0.384 5.965,1.248 7.71,1.506l0.314,-1.55c-2.148,-0.686 -3.857,-1.373 -4.665,-2.103c-1.074,-0.945 -1.159,-2.917 -1.159,-4.895c-0,-1.756 -0.185,-2.916 0.174,-3.646c0.45,-0.901 1.576,-1.078 4.846,-1.078l7.035,-0l-0,3.137c-0,3.691 -0.222,3.824 -3.765,4.252l-0,1.542l9.814,-0l-0,-1.542c-3.54,-0.428 -3.761,-0.561 -3.761,-4.252l-0,-3.137l9.267,-0c1.569,-0 1.569,0.088 1.569,1.72l-0,1.675c-0,2.533 -0.266,3.95 -1.03,4.636c-0.716,0.687 -2.056,1.159 -4.163,1.588l0.136,1.548c2.957,-0.213 6.312,-0.434 7.076,-0.471l-0,-19.709Zm-14.649,177.425c-7.529,-0 -12.734,-3.816 -12.734,-10.002c-0,-3.094 1.17,-3.522 5.293,-3.522l17.517,0c1.211,0 2.152,0.046 2.332,0.303c0.177,0.259 0.314,1.204 0.314,2.444c-0,6.096 -3.089,10.776 -12.722,10.776m7.706,-19.103l-15.416,-0c-4.839,-0 -5.337,-0.348 -5.606,-3.692l-1.433,0l-0,10.86c-0,10.09 4.979,18.202 16.004,18.202c3.985,0 7.304,-1.668 9.319,-3.69c2.871,-2.88 4.075,-7.257 4.075,-12.195l-0,-12.837l-1.436,0c-0.266,3.004 -0.665,3.351 -5.507,3.351m0.096,118.793l18.362,-8.496c1.75,3.24 3.111,4.673 2.676,5.559c-0.439,0.886 -1.355,1.852 -3.374,3.262l0.772,1.343c2.676,-1.467 5.761,-3.129 7.451,-3.956l-0.343,-0.745c-1.096,-0.346 -1.398,-0.702 -2.007,-1.675c-3.097,-4.829 -5.728,-9.885 -7.984,-15.125c-0.483,-1.057 -0.583,-1.485 0.03,-2.613l-0.344,-0.746c-2.107,0.885 -5.13,2.111 -8.09,3.285l0.65,1.41c2.247,-0.472 3.602,-0.531 4.407,-0.288c0.963,0.265 1.738,1.174 3.196,4.333l0.45,0.974l-18.192,8.408c-4.392,2.03 -4.993,1.942 -6.783,-1.299l-1.304,0.598c2.038,4.377 4.23,8.592 6.5,12.511l1.263,-0.649c-1.378,-3.617 -1.728,-4.06 2.664,-6.09m-1.125,-141.329l-9.231,3.094l0,-6.267l9.231,3.048l0,0.125Zm7.798,0.687l-23.038,-8.674c-4.03,-1.498 -4.44,-2.059 -4.753,-4.635l-1.433,-0l0,9.706l1.433,-0l0.132,-1.077c0.225,-1.971 0.905,-2.06 3.145,-1.417c1.926,0.561 3.786,1.122 5.089,1.631l-0,7.603c-1.657,0.642 -3.879,1.462 -5.359,2.015c-1.927,0.731 -2.602,0.517 -2.827,-1.07l-0.18,-1.115l-1.433,-0l0,11.759l1.433,-0c0.269,-2.273 0.678,-2.96 4.889,-4.466c4.526,-1.631 9.859,-3.521 15.192,-5.322l8.337,-2.835l-0.627,-2.103Zm62.87,177.757l0.649,-1.196c-3.429,-1.579 -6.636,-3.226 -9.567,-4.96l-0.76,1.218c2.329,1.616 3.156,2.606 2.507,4.052c-0.591,1.27 -1.68,3.492 -4.175,7.485l-4.185,6.688l-0.074,-0.044l-3.385,-25.998c-1.679,-1.241 -3.517,-2.68 -5.595,-4.444l-0.852,1.203c1.417,1.049 1.55,2.488 1.672,3.831c0.084,1.321 -0.488,2.237 -2.009,4.665l-4.705,7.53c-2.495,3.985 -4.023,5.942 -4.905,7.027c-1.015,1.218 -2.218,0.768 -4.086,-0.295l-0.761,1.218c2.865,2.296 5.788,4.436 8.77,6.422l0.761,-1.218c-2.329,-1.617 -2.676,-3.019 -2.027,-4.459c0.59,-1.27 1.68,-3.499 4.175,-7.492l4.923,-7.862l0.074,0.045l2.797,27.526l2.341,1.255l8.998,-14.395c2.495,-3.985 4.022,-5.942 4.904,-7.027c1.016,-1.218 2.595,-1.639 4.515,-0.775m-41.005,-10.334c-6.179,5.529 -11.121,5.92 -14.07,2.628c-3.812,-4.252 -1.148,-10.615 4.662,-15.819c5.805,-5.205 11.338,-5.95 14.316,-2.621c3.666,4.09 1.731,9.861 -4.908,15.812m7.156,-16.329c-6.935,-7.736 -16.365,-5.574 -21.739,-0.76c-6.108,5.477 -7.293,14.024 -1.65,20.328c5.673,6.334 14.494,6.843 21.54,0.539c6.474,-5.802 6.976,-14.379 1.849,-20.107m187.317,-2.104c1.273,1.861 2.056,3.337 2.244,4.414c0.27,1.404 -0.863,3.212 -2.078,4.769c-1.082,1.389 -1.794,2.303 -2.525,2.658c-0.908,0.435 -1.756,-0.008 -4.336,-2.016l-5.555,-4.319l1.927,-2.472c2.266,-2.916 2.524,-2.879 5.58,-1.049l0.953,-1.217l-7.751,-6.024l-0.949,1.219c2.532,2.509 2.631,2.752 0.361,5.669l-1.926,2.472l-6.927,-5.403c-1.241,-0.967 -1.185,-1.034 -0.185,-2.318l1.03,-1.321c1.557,-2.001 2.137,-3.337 3.163,-3.411c0.985,-0.096 2.443,0.436 4.37,1.395l0.845,-1.306c-2.466,-1.646 -5.359,-3.624 -5.986,-4.06c-3.511,5.521 -7.522,10.592 -12.117,15.494l1.129,0.879c2.111,-2.274 2.76,-2.156 6.581,0.819l12.168,9.471c3.82,2.967 3.868,3.483 1.916,6.429l1.133,0.878c4.846,-5.322 9.271,-10.917 13.15,-16.867c-0.719,-1.048 -3.797,-4.532 -5.02,-5.809l-1.195,1.026Zm32.45,-83.716c-3.094,-4.34 -7.26,-4.509 -12.28,-4.509l-13.892,0c-4.842,0 -5.156,-0.34 -5.426,-3.344l-1.431,0l-0,12.622l1.431,0c0.27,-3.351 0.584,-3.698 5.426,-3.698l13.534,0c3.226,0 5.692,0.089 7.931,0.472c2.736,0.473 4.57,1.809 5.648,4.252l1.48,-0.642c-0.495,-1.846 -1.392,-3.691 -2.421,-5.153m-16.343,26.235l-9.051,-3.543l0.004,-0.133l9.39,-2.576l-0.343,6.252Zm6.635,-13.774c-4.609,1.373 -10.035,2.968 -15.46,4.48l-8.478,2.37l0.509,2.134l22.525,9.927c3.946,1.721 3.625,2.614 3.562,4.762l1.443,0.273c0.565,-3.351 0.986,-6.614 1.314,-9.803l-1.447,-0.221l-0.221,1.24c-0.332,1.963 -0.83,2.022 -3.034,1.255c-1.893,-0.664 -3.831,-1.329 -5.1,-1.912l0.416,-7.589c1.695,-0.553 4.064,-1.239 5.569,-1.719c1.968,-0.621 2.614,-0.384 2.75,1.217l0.045,1.108l1.506,0.096c0.17,-3.728 0.177,-7.471 0.177,-11.862l-1.432,0c-0.395,2.258 -0.355,2.974 -4.644,4.244m-1.613,40.045c-0.741,2.193 -1.859,2.385 -5.783,0.982l-7.396,-2.576l0.288,-0.805c1.494,-4.163 4.617,-6.274 8.876,-4.746c4.348,1.558 4.868,4.761 4.015,7.145m-14.578,-3.144l-0.332,0.93l-7.755,-2.82c-1.14,-0.414 -2.056,-0.782 -2.137,-1.085c-0.08,-0.303 0.008,-0.819 0.34,-1.75c0.786,-2.185 2.912,-4.111 6.835,-2.709c3.503,1.255 4.341,3.839 3.049,7.434m11.995,-9.929c-4.222,-1.513 -7.588,0.835 -9.703,4.865l-0.085,-0.029c0.565,-2.762 -0.177,-6.673 -3.89,-8.01c-4.514,-1.617 -7.983,0.864 -9.607,6.592c-1.111,3.868 -2.454,7.603 -3.957,11.242l1.351,0.487c1.255,-2.701 1.665,-2.915 6.223,-1.284l14.6,5.3c4.559,1.639 4.961,2.067 4.127,5.189l1.351,0.48c1.31,-3.292 2.702,-7.366 3.768,-10.504c1.104,-3.07 1.653,-6.068 1.141,-8.489c-0.543,-2.605 -2.24,-4.731 -5.319,-5.839m-154.962,94.33c-2.245,7.98 -6.205,10.97 -10.46,9.774c-5.5,-1.55 -6.666,-8.349 -4.555,-15.856c2.108,-7.507 6.378,-11.109 10.674,-9.899c5.292,1.491 6.754,7.389 4.341,15.981m-2.717,-17.619c-10.006,-2.813 -16.804,4.074 -18.757,11.028c-2.222,7.898 1.373,15.752 9.515,18.041c8.186,2.295 15.907,-2.008 18.465,-11.11c2.355,-8.378 -1.827,-15.878 -9.223,-17.959m-91.95,-283.485l11.062,0c1.793,0 1.93,0.132 1.93,2.147c-0,2.407 -1.698,5.367 -6.134,5.367c-2.196,0 -4.304,-0.642 -5.695,-2.317c-0.849,-1.034 -1.163,-2.186 -1.163,-3.95l-0,-1.247Zm-3.451,3.565c-2.421,1.115 -5.019,2.318 -7.078,3.654c-2.603,1.668 -3.769,3.13 -4.083,8.371l-0.088,1.543l1.344,0.088c0.361,-1.078 0.852,-1.676 1.837,-2.532c0.941,-0.775 2.691,-1.933 5.064,-3.395c2.108,-1.248 5.156,-2.88 6.411,-3.477c1.3,3.307 3.676,5.536 7.573,5.536c2.554,0 4.744,-1.115 5.865,-2.834c1.123,-1.713 1.525,-4.031 1.525,-7.684l-0,-11.634l-1.436,0c-0.266,3.093 -0.665,3.432 -5.507,3.432l-15.416,0c-4.839,0 -5.337,-0.339 -5.606,-3.602l-1.433,0l-0,12.49l1.433,0c0.269,-3.174 0.767,-3.521 5.606,-3.521l5.783,0l-0,0.989c-0,1.329 -0.361,1.934 -1.794,2.576m207.787,284.525c-2.488,1.831 -3.418,1.292 -5.865,-2.029l-10.342,-14.033c-0.72,-0.975 -1.244,-1.757 -1.141,-2.052c0.1,-0.303 0.783,-0.967 1.783,-1.705c4.909,-3.617 10.46,-3.971 16.177,3.787c4.466,6.06 4.367,12.364 -0.612,16.032m-3.588,-26.078c-4.019,-0.606 -8.301,0.855 -12.276,3.786c-3.336,2.599 -6.875,5.02 -10.622,7.278l0.849,1.159c2.58,-1.572 3.045,-1.52 5.917,2.377l9.518,12.977c2.875,3.898 2.783,4.356 0.248,6.555l0.848,1.159l8.747,-6.444c8.124,-5.98 11.815,-14.653 5.275,-23.533c-2.37,-3.211 -5.684,-4.887 -8.504,-5.314m-47.087,39.786l0.287,-9.721l0.122,-0.037l5.599,7.964l-6.008,1.794Zm15.213,1.595c-2.857,-3.875 -6.19,-8.445 -9.438,-13.043l-5.096,-7.183l-1.839,1.204l-1.735,24.558c-0.287,4.289 -0.845,3.86 -3.225,4.894l0.292,1.425c3.015,-0.539 6.215,-1.285 9.511,-2.067l-0.41,-1.373l-1.074,0.229c-1.956,0.354 -2.181,-0.096 -2.203,-2.429c-0.015,-2.008 -0.045,-4.052 0.081,-5.448l7.282,-2.17c1.092,1.41 2.539,3.411 3.495,4.665c1.251,1.639 1.185,2.178 -0.273,2.843l-1.019,0.486l0.41,1.381c3.801,-1.196 7.548,-2.532 11.235,-4.031l-0.41,-1.372c-2.255,0.391 -2.941,1.04 -5.584,-2.569m-31.077,6.887l-0.889,-15.406c-0.277,-4.923 -0.144,-6.23 3.196,-6.643l-0.045,-1.439c-3.044,0.509 -5.702,0.782 -8.536,1.025l-7.78,20.773l-9.479,-20.743c-2.837,-0.229 -5.683,-0.553 -8.536,-0.982l0.044,1.432c3.558,0.82 3.956,2.776 3.791,8.74l-0.244,9.065c-0.093,4.089 -0.27,6.06 -0.443,7.455c-0.207,1.661 -1.462,1.551 -3.159,1.61l-0.145,1.394c3.179,0.37 6.67,0.65 10.36,0.872l-0.043,-1.439c-2.798,-0.141 -3.736,-0.694 -3.957,-2.348c-0.211,-1.38 -0.295,-3.307 -0.281,-7.161l0.011,-11.079l0.085,0l9.693,22.145l1.439,0.022l8.666,-23.879l0.169,-0.008l0.632,16.756c0.192,4.968 0.07,5.109 -3.096,5.515l0.04,1.439c4.37,-0.214 8.496,-0.576 12.283,-1.13l-0.044,-1.439c-3.356,-0.207 -3.451,0.421 -3.732,-4.547m-122.878,-419.647l0,-7.47l-1.436,0c-0.133,1.757 -0.446,2.834 -1.524,3.647c-1.074,0.775 -2.233,0.775 -5.101,0.775l-8.876,0c-4.702,0 -7.353,-0.259 -8.74,-0.428c-1.573,-0.215 -2.2,-1.248 -2.288,-3.389l-1.433,0l0,10.645l1.433,0c0.132,-2.835 0.715,-3.905 2.288,-4.119c1.387,-0.177 4.038,-0.436 8.74,-0.436l9.278,0l0,0.089l-21.739,17l0,2.62l17.033,0c4.706,0 7.257,0.259 8.644,0.428c1.569,0.215 2.196,1.248 2.285,3.396l1.436,0l0,-10.652l-1.436,0c-0.133,2.835 -0.716,3.913 -2.285,4.127c-1.387,0.169 -3.938,0.428 -8.644,0.428l-7.887,0l0,-0.089l20.252,-16.572Zm219.338,10.94c-1.583,-0.214 -2.218,-1.248 -2.307,-3.395l-1.446,0l0,10.651l1.446,0c0.136,-2.835 0.724,-3.905 2.307,-4.127c1.402,-0.169 3.89,-0.427 8.636,-0.427l7.958,0l-0,0.088l-20.347,16.572l-0,7.47l1.446,0c0.136,-1.764 0.451,-2.834 1.539,-3.646c1.082,-0.776 2.17,-0.776 5.064,-0.776l8.954,0c4.746,0 7.234,0.259 8.637,0.429c1.583,0.214 2.218,1.247 2.306,3.395l1.447,0l-0,-10.652l-1.447,0c-0.136,2.835 -0.723,3.905 -2.306,4.127c-1.403,0.17 -3.891,0.428 -8.637,0.428l-9.36,0l-0,-0.089l22.067,-17l-0,-2.62l-17.321,0c-4.746,0 -7.234,-0.259 -8.636,-0.428m3.167,-11.08l15.556,0c4.887,0 5.201,0.34 5.474,3.521l1.447,0l0,-12.622l-1.447,0c-0.273,3.174 -0.587,3.521 -5.474,3.521l-15.556,0c-4.887,0 -5.205,-0.347 -5.474,-3.521l-1.446,0l-0,12.622l1.446,0c0.269,-3.181 0.587,-3.521 5.474,-3.521m1.232,-24.906l9.235,-3.092l-0,6.267l-9.235,-3.049l-0,-0.126Zm15.24,7.987c4.034,1.499 4.255,2.059 4.569,4.636l1.436,0l-0,-9.707l-1.436,0l-0.133,1.078c-0.225,1.971 -0.716,2.059 -2.96,1.417c-1.927,-0.561 -3.897,-1.122 -5.197,-1.638l-0,-7.596c1.658,-0.643 3.987,-1.462 5.467,-2.015c1.926,-0.731 2.421,-0.517 2.646,1.07l0.177,1.114l1.436,0l-0,-11.758l-1.436,0c-0.27,2.273 -0.49,2.96 -4.706,4.465c-4.525,1.632 -9.858,3.521 -15.191,5.323l-8.338,2.834l0.627,2.104l23.039,8.673Zm5.422,215.138c-1.702,-0.686 -5.289,-1.631 -7.71,-2.192l-0.31,1.55c4.794,2.23 7.259,4.422 7.259,8.711c-0,5.713 -5.558,9.618 -13.851,9.618c-6.452,0 -12.593,-3.086 -12.593,-9.7c-0,-3.646 1.435,-6.311 6.68,-7.684l-0.27,-1.55c-2.823,0.258 -4.794,0.436 -7.259,0.775c-0.27,1.203 -1.166,4.075 -1.166,7.729c-0,10.135 6.812,16.786 15.641,16.786c7.216,0 14.833,-4.548 14.833,-16.011c-0,-2.968 -0.941,-6.828 -1.254,-8.032m-20.662,-16.35l9.235,-3.093l-0,6.267l-9.235,-3.049l-0,-0.125Zm-7.799,-0.686l23.039,8.666c4.034,1.506 4.255,2.066 4.569,4.642l1.436,0l-0,-9.706l-1.436,0l-0.133,1.077c-0.225,1.972 -0.716,2.06 -2.96,1.418c-1.927,-0.561 -3.897,-1.122 -5.197,-1.632l-0,-7.603c1.658,-0.642 3.987,-1.461 5.467,-2.015c1.926,-0.73 2.421,-0.516 2.646,1.07l0.177,1.115l1.436,0l-0,-11.759l-1.436,0c-0.27,2.273 -0.49,2.96 -4.706,4.466c-4.525,1.631 -9.858,3.521 -15.191,5.322l-8.338,2.835l0.627,2.104Zm14.613,-123.946l-11.077,0c-1.812,0 -1.948,-0.125 -1.948,-2.148c-0,-2.406 1.631,-5.366 6.108,-5.366c2.215,0 4.34,0.642 5.743,2.317c0.86,1.034 1.174,2.193 1.174,3.95l-0,1.247Zm3.484,-3.565c2.443,-1.115 5.063,-2.318 7.145,-3.647c2.621,-1.676 3.798,-3.137 4.115,-8.37l0.089,-1.551l-1.358,-0.081c-0.362,1.071 -0.856,1.669 -1.853,2.532c-0.948,0.768 -2.712,1.934 -5.108,3.388c-2.126,1.248 -5.2,2.879 -6.466,3.477c-1.314,-3.307 -3.71,-5.536 -7.644,-5.536c-2.58,0 -4.702,1.115 -5.835,2.834c-1.13,1.713 -1.535,4.038 -1.535,7.685l-0,11.633l1.446,0c0.269,-3.093 0.587,-3.432 5.47,-3.432l15.557,0c4.886,0 5.2,0.339 5.473,3.602l1.447,0l-0,-12.49l-1.447,0c-0.273,3.174 -0.587,3.521 -5.473,3.521l-5.832,0l-0,-0.989c-0,-1.328 0.362,-1.934 1.809,-2.576m4.026,76.444l-15.556,0c-4.883,0 -5.201,-0.339 -5.474,-3.521l-1.446,0l-0,12.623l1.446,0c0.273,-3.174 0.591,-3.521 5.474,-3.521l15.556,0c4.887,0 5.201,0.347 5.474,3.521l1.447,0l-0,-12.623l-1.447,0c-0.273,3.182 -0.587,3.521 -5.474,3.521m-19.402,-27.142c0.723,-0.686 1.989,-1.159 4.115,-1.587l-0.133,-1.543c-2.986,0.214 -6.289,0.428 -7.056,0.472l-0,21.134l1.446,0c0.269,-3.086 0.587,-3.433 5.474,-3.433l15.556,0c4.887,0 5.201,0.347 5.474,3.433l1.447,0l-0,-13.132l-1.447,0c-0.273,3.779 -0.587,4.12 -5.474,4.12l-6.827,0l-0,-3.817c-0,-3.698 0.225,-3.824 3.616,-4.252l-0,-1.55l-9.496,0l-0,1.55c3.347,0.428 3.573,0.554 3.573,4.252l-0,3.817l-9.726,0c-1.583,0 -1.583,-0.082 -1.583,-1.721l-0,-3.1c-0,-2.539 0.274,-3.957 1.041,-4.643m-182.778,261.406l0.347,-0.635c0.425,-0.871 0.341,-1.454 -0.446,-1.948l-6.924,-4.636l-0.705,0.849l5.846,6.577c0.632,0.76 1.248,0.9 1.882,-0.207m179.704,-200.795l1.446,0c0.269,-3.263 0.587,-3.61 5.474,-3.61l15.556,0c4.887,0 5.201,0.347 5.474,3.861l1.447,0l-0,-20.477c-1.222,-0.384 -5.835,-1.24 -7.599,-1.506l-0.318,1.55c2.174,0.687 3.621,1.373 4.48,2.06c1.13,0.989 1.403,2.96 1.403,4.636c-0,1.335 -0.048,2.495 -0.365,3.225c-0.407,0.901 -1.399,1.07 -4.702,1.07l-15.376,0c-4.887,0 -5.205,-0.347 -5.474,-3.69l-1.446,0l-0,12.881Zm-231.22,-177.736l3.27,0c4.706,0 7.257,0.259 8.644,0.428c1.569,0.222 2.196,1.27 2.285,3.448l1.436,0l-0,-10.807l-1.436,0c-0.133,2.879 -0.716,3.964 -2.285,4.185c-1.387,0.17 -3.938,0.436 -8.644,0.436l-2.956,0c-7.71,0 -11.7,-2.399 -11.7,-7.536c-0,-4.754 3.809,-7.368 10.847,-7.368l9.231,0c4.842,0 5.241,0.746 5.507,3.883l1.436,0l-0,-12.814l-1.436,0c-0.266,3.314 -0.665,3.27 -5.507,3.27l-10.127,0c-5.245,0 -8.471,1.003 -10.397,3.314c-1.839,2.133 -2.421,5.485 -2.421,8.363c-0,3.049 1.21,6.186 3.317,8.098c2.643,2.444 6.633,3.1 10.936,3.1m248.607,273.003l-9.235,-3.048l-0,-0.133l9.235,-3.086l-0,6.267Zm7.751,-9.02c1.926,-0.724 2.421,-0.51 2.646,1.078l0.177,1.115l1.436,0l-0,-11.76l-1.436,0c-0.27,2.274 -0.49,2.96 -4.706,4.458c-4.525,1.632 -9.858,3.522 -15.191,5.33l-8.338,2.827l0.627,2.105l23.039,8.673c4.034,1.505 4.255,2.059 4.569,4.643l1.436,0l-0,-9.707l-1.436,0l-0.133,1.07c-0.225,1.978 -0.716,2.067 -2.96,1.417c-1.927,-0.553 -3.897,-1.114 -5.197,-1.631l-0,-7.596c1.658,-0.649 3.987,-1.461 5.467,-2.022m-242.336,-195.651l0.177,1.454l1.436,0l-0,-12.357l-1.436,0c-0.266,2.274 -0.535,3.042 -4.662,4.548c-4.211,1.542 -15.235,5.625 -23.3,8.629l-0,2.273c9.143,3.219 22.322,8.549 22.95,8.806c4.392,1.802 4.698,2.274 5.012,4.932l1.436,0l-0,-10.128l-1.436,0l-0.133,1.285c-0.225,1.933 -0.801,2.28 -3.849,1.292c-2.108,-0.688 -12.28,-3.95 -16.221,-5.412c6.137,-2.273 15.051,-5.624 17.56,-6.436c1.838,-0.606 2.241,-0.473 2.466,1.114m218.633,29.04c-0,-5.492 5.289,-8.497 14.206,-8.497c8.29,0 12.235,3.005 12.235,7.426c-0,5.706 -6.23,8.674 -14.029,8.674c-7.794,0 -12.412,-3.138 -12.412,-7.603m13.667,13.951c8.201,0 14.79,-5.581 14.79,-14.032c-0,-8.504 -6.227,-14.771 -15.683,-14.771c-8.695,0 -14.793,6.053 -14.793,13.737c-0,10.386 8.47,15.066 15.686,15.066" style="fill:#fff;fill-rule:nonzero;"/><path d="M320.43,481.276l0,54.668c-10.464,-4.052 -20.344,-2.812 -28.722,3.226c-3.794,2.731 -8.404,9.109 -15.727,9.109l-0.007,0c-7.323,0 -11.933,-6.378 -15.726,-9.109c-8.382,-6.038 -18.26,-7.278 -28.722,-3.226l0,-54.668l-4.536,2.2l0,59.54l3.251,-1.573c10.224,-4.923 19.41,-4.266 27.36,1.411c2.584,1.845 7.975,9.957 18.373,9.957l0,-0.007l0.003,0.007c10.401,0 15.794,-8.112 18.377,-9.957c7.95,-5.677 17.137,-6.334 27.36,-1.411l3.252,1.573l0,-59.54l-4.536,-2.2Z" style="fill:#231f20;fill-rule:nonzero;"/><path d="M272.944,341.815c-3.961,0.893 -3.477,5.92 -5.78,9.323c-0.012,0.014 -0.018,0.022 -0.03,0.037c-0.329,0.479 -0.709,0.922 -1.17,1.321c-0.014,0.015 -0.022,0.03 -0.037,0.044c-0.165,0.148 -0.202,0.399 -0.073,0.584c0.01,0.014 0.022,0.014 0.029,0.029c0.126,0.185 0.365,0.281 0.65,0.089c3.273,-2.186 4.016,-6.503 5.218,-8.917c0.259,-0.443 0.51,-0.827 0.746,-1.115c0.218,-0.236 0.458,-0.421 0.731,-0.517c0.601,-0.229 0.332,-1.019 -0.284,-0.878m79.452,-122.454c-0.015,0.28 -0.037,0.612 -0.063,0.967c-0.768,-0.133 -2.067,-0.118 -2.473,1.173c-0.9,2.865 -1.45,6.887 -1.59,7.168c-0.465,0.487 -2.229,1.617 -3.706,3.115c-1.62,1.646 -1.229,3.979 -1.203,4.311c0.026,0.325 0.479,0.384 0.506,-0.074c0.033,-0.546 0.508,-1.558 1.298,-2.539c0.794,-0.975 3.511,-3.558 4.05,-4.126c0.457,-0.488 1.542,-5.825 1.996,-7.39c0.174,-0.59 0.565,-0.767 1.038,-0.649c-0.325,3.558 -1.049,9.02 -1.451,10.297c-0.683,2.178 -4.045,9.936 -5.481,13.25c-0.325,0.746 -0.546,1.255 -0.613,1.417c-3.373,8.135 -15.261,30.066 -22.218,35.736c-0.067,0.051 -0.119,0.132 -0.144,0.22c-3.411,11.722 -15.572,26.375 -19.617,30.384c-0.074,0.073 -0.122,0.169 -0.133,0.272c-0.576,5.847 -3.99,14.424 -5.318,17.023c-1.555,3.033 -4.123,3.942 -7.655,3.809c-0.517,-0.037 -1.03,-0.074 -1.517,-0.119c-0.86,-0.088 -1.765,-0.221 -2.724,-0.398c-0.24,-0.044 -0.476,0.118 -0.521,0.362c-0.029,0.169 0.045,0.332 0.17,0.428c0.041,0.059 0.089,0.111 0.155,0.125c0.373,0.118 2.396,0.606 5.946,0.974c2.48,0.259 3.805,0.148 4.717,-0.421c-0.144,4.208 -0.612,10.011 -2.019,13.989c-0.856,2.236 -2.21,5.004 -3.241,6.26c-0.254,0.302 0.082,0.79 0.51,0.516c0.742,-0.465 2.056,-1.521 3.093,-2.731c0.292,3.883 0.196,7.751 0.092,10.711c-0.151,1.794 -1.025,6.622 -2.756,9.648c-0.285,0.369 0.247,1.1 0.715,0.686c0.514,-0.45 2,-2.657 2.698,-3.912c1.717,6.467 4.163,16.225 1.997,34.842c-1.617,13.869 -3.082,20.513 -4.152,25.362c-0.587,2.651 -1.048,4.747 -1.321,7.124c-0.761,6.599 -0.34,11.796 0.066,16.815c0.295,3.617 0.572,7.043 0.387,10.793c-0.653,13.36 -3.026,22.174 -4.934,29.261c-1.237,4.591 -2.303,8.547 -2.54,12.504c-0.236,4.03 -0.007,8.496 0.584,11.368c1.196,5.794 1.886,10.821 1.805,13.109c-0.119,3.3 -4.186,6.621 -6.825,8.024c-0.664,0.214 -1.377,0.31 -1.816,0.089c-0.114,-0.052 -0.461,-0.229 -0.494,-1.108c-0.181,-4.679 0.147,-12.843 0.369,-18.247c0.096,-2.347 0.17,-4.2 0.17,-4.99c0,-1.44 -0.218,-4.85 -0.495,-9.168c-0.395,-6.194 -0.886,-13.9 -0.886,-18.483c0,-3.765 0.258,-6.135 0.532,-8.645c0.28,-2.531 0.565,-5.144 0.565,-9.271c0,-4.798 -0.388,-10.357 -0.698,-14.815c-0.214,-3.056 -0.399,-5.698 -0.399,-7.249c0,-2.679 0.215,-4.14 0.428,-5.543c0.177,-1.21 0.347,-2.347 0.347,-4.09c0,-2.096 -0.243,-4.134 -0.461,-5.927c-0.158,-1.3 -0.291,-2.429 -0.307,-3.351c0.004,-0.311 0.008,-0.665 0.008,-1.064c0,-6.429 0.443,-28.92 0.853,-33.623c4.499,-1.004 5.639,-5.861 8.09,-9.042c0.343,-0.406 0.676,-0.79 0.956,-1.078c0.214,-0.199 0.435,-0.391 0.667,-0.561c0.521,-0.384 -0.062,-1.092 -0.575,-0.782c-5.311,3.203 -5.54,9.522 -10.866,9.552l-0.033,-0c-5.33,-0.03 -5.555,-6.349 -10.869,-9.552c-0.514,-0.31 -1.093,0.398 -0.576,0.782c0.236,0.17 0.454,0.362 0.668,0.561c0.28,0.288 0.613,0.672 0.96,1.078c2.447,3.181 3.587,8.038 8.086,9.042c0.41,4.703 0.853,27.194 0.853,33.623c0,0.399 0.004,0.753 0.01,1.064c-0.018,0.922 -0.151,2.051 -0.309,3.351c-0.214,1.793 -0.462,3.831 -0.462,5.927c0,1.743 0.17,2.88 0.351,4.09c0.21,1.403 0.428,2.864 0.428,5.543c0,1.551 -0.184,4.193 -0.398,7.249c-0.314,4.458 -0.698,10.017 -0.698,14.815c0,4.127 0.284,6.74 0.561,9.271c0.273,2.51 0.535,4.88 0.535,8.645c0,4.583 -0.491,12.289 -0.89,18.483c-0.273,4.318 -0.49,7.728 -0.49,9.168c0,0.79 0.074,2.643 0.17,4.99c0.218,5.404 0.546,13.568 0.369,18.247c-0.034,0.879 -0.384,1.056 -0.498,1.108c-0.437,0.221 -1.149,0.125 -1.813,-0.089c-2.639,-1.403 -6.706,-4.724 -6.824,-8.024c-0.085,-2.288 0.605,-7.315 1.801,-13.109c0.59,-2.872 0.82,-7.338 0.583,-11.368c-0.232,-3.957 -1.299,-7.913 -2.535,-12.504c-1.909,-7.087 -4.285,-15.901 -4.939,-29.261c-0.181,-3.75 0.096,-7.176 0.388,-10.793c0.405,-5.019 0.826,-10.216 0.066,-16.815c-0.273,-2.377 -0.735,-4.473 -1.317,-7.124c-1.071,-4.849 -2.536,-11.493 -4.152,-25.362c-2.171,-18.617 0.28,-28.375 1.996,-34.842c0.697,1.255 2.185,3.462 2.698,3.912c0.465,0.414 0.997,-0.317 0.716,-0.686c-1.735,-3.026 -2.605,-7.854 -2.76,-9.648c-0.1,-2.96 -0.196,-6.828 0.092,-10.711c1.037,1.21 2.354,2.266 3.096,2.731c0.425,0.274 0.764,-0.214 0.509,-0.516c-1.033,-1.256 -2.384,-4.024 -3.24,-6.26c-1.406,-3.978 -1.875,-9.781 -2.023,-13.989c0.916,0.569 2.241,0.68 4.721,0.421c3.547,-0.368 5.57,-0.856 5.946,-0.974c0.066,-0.014 0.114,-0.066 0.155,-0.125c0.126,-0.096 0.195,-0.259 0.166,-0.428c-0.044,-0.244 -0.281,-0.406 -0.52,-0.362c-0.957,0.177 -1.861,0.31 -2.721,0.398c-0.49,0.045 -1.004,0.082 -1.517,0.119c-3.531,0.133 -6.101,-0.776 -7.658,-3.809c-1.325,-2.599 -4.743,-11.176 -5.319,-17.023c-0.01,-0.103 -0.055,-0.199 -0.128,-0.272c-4.046,-4.009 -16.211,-18.662 -19.618,-30.384c-0.025,-0.088 -0.077,-0.169 -0.147,-0.22c-6.953,-5.67 -18.846,-27.601 -22.215,-35.736c-0.07,-0.162 -0.291,-0.671 -0.613,-1.417c-1.435,-3.314 -4.798,-11.072 -5.481,-13.25c-0.402,-1.277 -1.129,-6.739 -1.454,-10.297c0.473,-0.118 0.868,0.059 1.037,0.649c0.458,1.565 1.543,6.902 1.997,7.39c0.543,0.568 3.259,3.151 4.049,4.126c0.793,0.981 1.27,1.993 1.303,2.539c0.026,0.458 0.48,0.399 0.506,0.074c0.025,-0.332 0.413,-2.665 -1.204,-4.311c-1.48,-1.498 -3.244,-2.628 -3.709,-3.115c-0.14,-0.281 -0.686,-4.303 -1.591,-7.168c-0.406,-1.291 -1.702,-1.306 -2.469,-1.173c-0.029,-0.355 -0.052,-0.687 -0.066,-0.967c-0.104,-2.097 0.125,-2.635 0.273,-2.768c0.025,-0.015 0.077,-0.067 0.325,-0.03c0.867,0.133 1.915,1.765 2.731,4.259l0.232,0.724c0.524,1.646 1.063,3.351 2.676,6.142c0.122,0.214 0.395,0.287 0.609,0.161c0.214,-0.125 0.288,-0.398 0.166,-0.612c-0.627,-1.078 -1.085,-1.993 -1.439,-2.805c0.771,0.074 1.398,0.547 1.897,2.067c0.52,1.579 1.535,2.797 2.277,3.683c0.244,0.296 0.462,0.547 0.609,0.768c2.266,3.307 0.465,6.451 0.392,6.584c-0.056,0.089 -0.078,0.2 -0.06,0.303c0.333,1.831 1.289,4.156 2.075,5.721c1.202,2.392 3.196,4.96 5.768,7.418c7.74,7.397 13.512,14.128 18.377,24.795c0.014,0.037 0.037,0.074 0.066,0.111c1.181,1.373 2.982,3.204 5.072,5.33c4.48,4.561 10.054,10.23 12.116,14.106c0.034,0.066 0.085,0.125 0.148,0.162c0.923,0.613 2.391,1.041 4.097,1.543c3.303,0.967 7.415,2.178 10.187,5.308c0.051,0.059 0.11,0.095 0.177,0.118c0.313,0.598 0.76,1.262 1.406,1.941c0.089,0.096 0.203,0.14 0.321,0.14c0.115,-0 0.221,-0.037 0.31,-0.125c0.181,-0.17 0.185,-0.451 0.015,-0.627c-1.591,-1.676 -1.842,-3.242 -1.923,-3.758c-0.192,-1.211 -0.089,-2.48 0.022,-3.816c0.03,-0.325 0.056,-0.657 0.078,-0.997c1.513,1.344 3.48,2.923 4.344,3.071c1.199,0.199 2.875,0.207 3.078,0.214c0.207,-0.007 1.879,-0.015 3.081,-0.214c0.86,-0.148 2.832,-1.727 4.341,-3.071c0.026,0.34 0.052,0.672 0.077,0.997c0.112,1.336 0.214,2.605 0.022,3.816c-0.081,0.516 -0.331,2.082 -1.922,3.758c-0.17,0.176 -0.162,0.457 0.014,0.627c0.089,0.088 0.2,0.125 0.31,0.125c0.118,-0 0.237,-0.044 0.325,-0.14c0.646,-0.679 1.089,-1.343 1.403,-1.941c0.066,-0.023 0.129,-0.059 0.177,-0.118c2.776,-3.13 6.887,-4.341 10.19,-5.308c1.702,-0.502 3.171,-0.93 4.093,-1.543c0.063,-0.037 0.115,-0.096 0.152,-0.162c2.059,-3.876 7.632,-9.545 12.113,-14.106c2.09,-2.126 3.894,-3.957 5.075,-5.33c0.026,-0.037 0.048,-0.074 0.067,-0.111c4.864,-10.667 10.637,-17.398 18.372,-24.795c2.573,-2.458 4.57,-5.026 5.769,-7.418c0.786,-1.565 1.746,-3.89 2.074,-5.721c0.019,-0.103 0,-0.214 -0.055,-0.303c-0.078,-0.133 -1.878,-3.277 0.388,-6.584c0.151,-0.221 0.365,-0.472 0.612,-0.768c0.742,-0.886 1.757,-2.104 2.278,-3.683c0.498,-1.52 1.125,-1.993 1.897,-2.067c-0.358,0.812 -0.816,1.727 -1.44,2.805c-0.122,0.214 -0.052,0.487 0.162,0.612c0.214,0.126 0.488,0.053 0.613,-0.161c1.613,-2.791 2.152,-4.496 2.676,-6.142l0.232,-0.724c0.817,-2.494 1.86,-4.126 2.728,-4.259c0.247,-0.037 0.299,0.015 0.325,0.03c0.148,0.133 0.377,0.671 0.273,2.768m-87.432,56.144c-0.029,-0.582 -0.059,-1.188 -0.084,-1.837c-0.137,-3.566 0.796,-6.422 2.778,-8.482c1.968,-2.045 4.913,-3.174 8.301,-3.181l0.033,-0c3.385,0.007 6.33,1.136 8.297,3.181c1.982,2.06 2.92,4.916 2.779,8.482c-0.022,0.649 -0.051,1.255 -0.081,1.837c-0.34,3.278 -1.258,9.449 -2.336,12.313c-1.392,3.698 -5.045,7.301 -5.651,7.78c-0.602,0.473 -2.096,0.561 -3.008,0.561l-0.033,-0c-0.915,-0 -2.407,-0.088 -3.008,-0.561c-0.609,-0.479 -4.263,-4.082 -5.65,-7.78c-1.078,-2.864 -1.997,-9.035 -2.337,-12.313m82.951,-60.108c-0.62,1.181 -2.347,4.761 -2.472,5.293c-1.968,-0.148 -3.171,2.458 -4.334,4.458c-1.118,1.919 -5.871,7.389 -2.801,13.021c-1.956,11.862 -13.907,9.995 -25.618,35.668c-3.274,3.832 -11.899,9.368 -16.859,18.632c-1.798,0.915 -6.212,1.114 -9.035,2.731c0,-0 -0.034,-2.731 -0.038,-2.842c2.292,-4.407 3.614,-11.309 4.352,-18.513c0.661,-6.452 -3.639,-15.886 -15.136,-15.886c-11.494,-0 -15.797,9.434 -15.132,15.886c0.737,7.204 2.059,14.106 4.347,18.513c0,0.111 -0.033,2.842 -0.033,2.842c-2.824,-1.617 -7.237,-1.816 -9.035,-2.731c-4.961,-9.264 -13.59,-14.8 -16.86,-18.632c-11.711,-25.673 -23.666,-23.806 -25.621,-35.668c3.07,-5.632 -1.68,-11.102 -2.798,-13.021c-1.167,-2 -2.366,-4.606 -4.337,-4.458c-0.122,-0.532 -1.849,-4.112 -2.469,-5.293c-2.041,-3.891 -8.197,-3.019 -8.013,2.798c0.399,12.467 3.174,18.955 5.773,24.042c6.894,12.829 11.807,29.238 24.079,42.031c2.532,7.706 9.581,21.686 19.457,30.021c0.049,3.779 3.703,15.176 6.36,19.015c-0.306,4.355 1.254,12.342 2.266,15.952c-0.757,4.893 -1.067,14.01 -0.373,17.273c-2.642,9.669 -3.687,17.9 -3.72,26.633c-0.081,19.65 7.552,38.51 7.4,49.213c-0.148,10.43 -2.019,14.461 -1.768,22.492c0.07,14.542 8.751,34.938 8.751,43.958c0,5.063 -3.399,16.113 -3.716,20.749c-0.111,1.647 0.132,3.544 0.933,5.234c1.702,3.61 8.282,8.88 12.803,8.88l3.415,-0c4.521,-0 11.102,-5.27 12.803,-8.88c0.801,-1.69 1.041,-3.587 0.93,-5.234c-0.313,-4.636 -3.713,-15.686 -3.713,-20.749c0,-9.02 8.681,-29.416 8.747,-43.958c0.255,-8.031 -1.616,-12.062 -1.764,-22.492c-0.155,-10.703 7.482,-29.563 7.4,-49.213c-0.033,-8.733 -1.078,-16.964 -3.72,-26.633c0.694,-3.263 0.384,-12.38 -0.373,-17.273c1.011,-3.61 2.573,-11.597 2.266,-15.952c2.658,-3.839 6.312,-15.236 6.359,-19.015c9.878,-8.335 16.927,-22.315 19.459,-30.021c12.272,-12.793 17.184,-29.202 24.075,-42.031c2.599,-5.087 5.377,-11.575 5.776,-24.042c0.185,-5.817 -5.972,-6.689 -8.013,-2.798m-59.865,91.274c-2.391,0.318 -6.484,0.812 -8.537,3.086c-0.734,0.811 0.122,2.052 1.045,1.328c1.58,-1.232 3.819,-2.746 7.625,-3.469c0.498,-0.096 0.502,-1.027 -0.133,-0.945m-3.263,44.467c-2.302,-3.403 -1.819,-8.43 -5.779,-9.323c-0.62,-0.141 -0.886,0.649 -0.288,0.878c0.276,0.096 0.513,0.281 0.734,0.517c0.236,0.288 0.487,0.672 0.742,1.115c1.207,2.414 1.946,6.731 5.222,8.917c0.285,0.192 0.525,0.096 0.647,-0.089c0.007,-0.015 0.021,-0.015 0.029,-0.029c0.133,-0.185 0.092,-0.436 -0.074,-0.584c-0.011,-0.014 -0.018,-0.029 -0.036,-0.044c-0.458,-0.399 -0.842,-0.842 -1.17,-1.321c-0.008,-0.015 -0.019,-0.023 -0.027,-0.037m-12.352,-41.381c-2.053,-2.274 -6.142,-2.768 -8.537,-3.086c-0.635,-0.082 -0.632,0.849 -0.133,0.945c3.805,0.723 6.045,2.237 7.625,3.469c0.923,0.724 1.782,-0.517 1.045,-1.328m5.853,-28.944c0,-0.339 0.026,-1.698 0.222,-1.75c0.188,-0.044 0.582,0.089 1.368,0.34c0.067,0.022 0.137,0.059 0.196,0.074c0.886,0.199 2.207,0.088 2.706,-0.155c0.358,-0.177 1.062,-0.665 1.062,-1.617c0,-0.236 -1.679,-0.804 -4.229,-0.347c-0.033,0.008 -0.074,0.023 -0.111,0.045l-0.004,-0c-0.339,0.022 -0.059,-1.063 0.694,-1.174c0.938,-0.14 1.901,-0.236 2.758,-0.214c0.841,0.022 1.586,0.302 2.033,0.472c0.709,0.273 0.915,-0.531 0.661,-0.716c-0.48,-0.354 -1.61,-1.011 -2.104,-1.107c-0.491,-0.103 -3.764,-0.229 -5.975,0.606c-0.019,0.007 -0.022,0.021 -0.037,0.029c-0.037,0.014 -0.067,0.037 -0.078,0.067l-0.003,0.006c-0.008,0.015 -0.012,0.037 -0.015,0.052c-0.126,0.362 -0.173,1.396 -0.233,2.053c-0.033,0.339 0.137,3.181 0.307,3.993c0.11,0.531 0.782,-0.31 0.782,-0.657m-5.909,-3.455c-2.547,-0.457 -4.23,0.111 -4.23,0.347c0,0.952 0.705,1.44 1.067,1.617c0.494,0.243 1.819,0.354 2.705,0.155c0.465,-0.104 1.207,-0.65 1.443,-0.886c0.233,-0.236 -0.557,-1.159 -0.985,-1.233m1.417,8.297c0.613,0.17 1.513,0.665 2.163,0.679l0,0.008l0.015,-0.008c0.003,-0 0.011,0.008 0.011,0.008l0.004,-0.008c0.653,-0.014 1.554,-0.509 2.162,-0.679c0.631,-0.177 0.078,-0.774 -0.48,-0.774c-0.553,-0 -1.199,0.287 -1.697,0.294c-0.495,-0.007 -1.144,-0.294 -1.694,-0.294c-0.557,-0 -1.112,0.597 -0.484,0.774m0.137,-9.013c0.27,0.096 0.941,-1.203 0.472,-1.372c-2.211,-0.835 -5.485,-0.709 -5.979,-0.606c-0.494,0.096 -1.621,0.753 -2.1,1.107c-0.254,0.185 -0.052,0.989 0.661,0.716c0.443,-0.17 1.192,-0.45 2.033,-0.472c1.547,-0.045 3.473,0.288 4.913,0.627" style="fill:#231f20;fill-rule:nonzero;"/><path d="M272.944,341.815c-3.961,0.893 -3.477,5.92 -5.78,9.323c-0.012,0.014 -0.018,0.022 -0.03,0.037c-0.329,0.479 -0.709,0.922 -1.17,1.321c-0.014,0.015 -0.022,0.03 -0.037,0.044c-0.165,0.148 -0.202,0.399 -0.073,0.584c0.01,0.014 0.022,0.014 0.029,0.029c0.126,0.185 0.365,0.281 0.65,0.089c3.273,-2.186 4.016,-6.503 5.218,-8.917c0.259,-0.443 0.51,-0.827 0.746,-1.115c0.218,-0.236 0.458,-0.421 0.731,-0.517c0.601,-0.229 0.332,-1.019 -0.284,-0.878m79.452,-122.454c-0.015,0.28 -0.037,0.612 -0.063,0.967c-0.768,-0.133 -2.067,-0.118 -2.473,1.173c-0.9,2.865 -1.45,6.887 -1.59,7.168c-0.465,0.487 -2.229,1.617 -3.706,3.115c-1.62,1.646 -1.229,3.979 -1.203,4.311c0.026,0.325 0.479,0.384 0.506,-0.074c0.033,-0.546 0.508,-1.558 1.298,-2.539c0.794,-0.975 3.511,-3.558 4.05,-4.126c0.457,-0.488 1.542,-5.825 1.996,-7.39c0.174,-0.59 0.565,-0.767 1.038,-0.649c-0.325,3.558 -1.049,9.02 -1.451,10.297c-0.683,2.178 -4.045,9.936 -5.481,13.25c-0.325,0.746 -0.546,1.255 -0.613,1.417c-3.373,8.135 -15.261,30.066 -22.218,35.736c-0.067,0.051 -0.119,0.132 -0.144,0.22c-3.411,11.722 -15.572,26.375 -19.617,30.384c-0.074,0.073 -0.122,0.169 -0.133,0.272c-0.576,5.847 -3.99,14.424 -5.318,17.023c-1.555,3.033 -4.123,3.942 -7.655,3.809c-0.517,-0.037 -1.03,-0.074 -1.517,-0.119c-0.86,-0.088 -1.765,-0.221 -2.724,-0.398c-0.24,-0.044 -0.476,0.118 -0.521,0.362c-0.029,0.169 0.045,0.332 0.17,0.428c0.041,0.059 0.089,0.111 0.155,0.125c0.373,0.118 2.396,0.606 5.946,0.974c2.48,0.259 3.805,0.148 4.717,-0.421c-0.144,4.208 -0.612,10.011 -2.019,13.989c-0.856,2.236 -2.21,5.004 -3.241,6.26c-0.254,0.302 0.082,0.79 0.51,0.516c0.742,-0.465 2.056,-1.521 3.093,-2.731c0.292,3.883 0.196,7.751 0.092,10.711c-0.151,1.794 -1.025,6.622 -2.756,9.648c-0.285,0.369 0.247,1.1 0.715,0.686c0.514,-0.45 2,-2.657 2.698,-3.912c1.717,6.467 4.163,16.225 1.997,34.842c-1.617,13.869 -3.082,20.513 -4.152,25.362c-0.587,2.651 -1.048,4.747 -1.321,7.124c-0.761,6.599 -0.34,11.796 0.066,16.815c0.295,3.617 0.572,7.043 0.387,10.793c-0.653,13.36 -3.026,22.174 -4.934,29.261c-1.237,4.591 -2.303,8.547 -2.54,12.504c-0.236,4.03 -0.007,8.496 0.584,11.368c1.196,5.794 1.886,10.821 1.805,13.109c-0.119,3.3 -4.186,6.621 -6.825,8.024c-0.664,0.214 -1.377,0.31 -1.816,0.089c-0.114,-0.052 -0.461,-0.229 -0.494,-1.108c-0.181,-4.679 0.147,-12.843 0.369,-18.247c0.096,-2.347 0.17,-4.2 0.17,-4.99c0,-1.44 -0.218,-4.85 -0.495,-9.168c-0.395,-6.194 -0.886,-13.9 -0.886,-18.483c0,-3.765 0.258,-6.135 0.532,-8.645c0.28,-2.531 0.565,-5.144 0.565,-9.271c0,-4.798 -0.388,-10.357 -0.698,-14.815c-0.214,-3.056 -0.399,-5.698 -0.399,-7.249c0,-2.679 0.215,-4.14 0.428,-5.543c0.177,-1.21 0.347,-2.347 0.347,-4.09c0,-2.096 -0.243,-4.134 -0.461,-5.927c-0.158,-1.3 -0.291,-2.429 -0.307,-3.351c0.004,-0.311 0.008,-0.665 0.008,-1.064c0,-6.429 0.443,-28.92 0.853,-33.623c4.499,-1.004 5.639,-5.861 8.09,-9.042c0.343,-0.406 0.676,-0.79 0.956,-1.078c0.214,-0.199 0.435,-0.391 0.667,-0.561c0.521,-0.384 -0.062,-1.092 -0.575,-0.782c-5.311,3.203 -5.54,9.522 -10.866,9.552l-0.033,-0c-5.33,-0.03 -5.555,-6.349 -10.869,-9.552c-0.514,-0.31 -1.093,0.398 -0.576,0.782c0.236,0.17 0.454,0.362 0.668,0.561c0.28,0.288 0.613,0.672 0.96,1.078c2.447,3.181 3.587,8.038 8.086,9.042c0.41,4.703 0.853,27.194 0.853,33.623c0,0.399 0.004,0.753 0.01,1.064c-0.018,0.922 -0.151,2.051 -0.309,3.351c-0.214,1.793 -0.462,3.831 -0.462,5.927c0,1.743 0.17,2.88 0.351,4.09c0.21,1.403 0.428,2.864 0.428,5.543c0,1.551 -0.184,4.193 -0.398,7.249c-0.314,4.458 -0.698,10.017 -0.698,14.815c0,4.127 0.284,6.74 0.561,9.271c0.273,2.51 0.535,4.88 0.535,8.645c0,4.583 -0.491,12.289 -0.89,18.483c-0.273,4.318 -0.49,7.728 -0.49,9.168c0,0.79 0.074,2.643 0.17,4.99c0.218,5.404 0.546,13.568 0.369,18.247c-0.034,0.879 -0.384,1.056 -0.498,1.108c-0.437,0.221 -1.149,0.125 -1.813,-0.089c-2.639,-1.403 -6.706,-4.724 -6.824,-8.024c-0.085,-2.288 0.605,-7.315 1.801,-13.109c0.59,-2.872 0.82,-7.338 0.583,-11.368c-0.232,-3.957 -1.299,-7.913 -2.535,-12.504c-1.909,-7.087 -4.285,-15.901 -4.939,-29.261c-0.181,-3.75 0.096,-7.176 0.388,-10.793c0.405,-5.019 0.826,-10.216 0.066,-16.815c-0.273,-2.377 -0.735,-4.473 -1.317,-7.124c-1.071,-4.849 -2.536,-11.493 -4.152,-25.362c-2.171,-18.617 0.28,-28.375 1.996,-34.842c0.697,1.255 2.185,3.462 2.698,3.912c0.465,0.414 0.997,-0.317 0.716,-0.686c-1.735,-3.026 -2.605,-7.854 -2.76,-9.648c-0.1,-2.96 -0.196,-6.828 0.092,-10.711c1.037,1.21 2.354,2.266 3.096,2.731c0.425,0.274 0.764,-0.214 0.509,-0.516c-1.033,-1.256 -2.384,-4.024 -3.24,-6.26c-1.406,-3.978 -1.875,-9.781 -2.023,-13.989c0.916,0.569 2.241,0.68 4.721,0.421c3.547,-0.368 5.57,-0.856 5.946,-0.974c0.066,-0.014 0.114,-0.066 0.155,-0.125c0.126,-0.096 0.195,-0.259 0.166,-0.428c-0.044,-0.244 -0.281,-0.406 -0.52,-0.362c-0.957,0.177 -1.861,0.31 -2.721,0.398c-0.49,0.045 -1.004,0.082 -1.517,0.119c-3.531,0.133 -6.101,-0.776 -7.658,-3.809c-1.325,-2.599 -4.743,-11.176 -5.319,-17.023c-0.01,-0.103 -0.055,-0.199 -0.128,-0.272c-4.046,-4.009 -16.211,-18.662 -19.618,-30.384c-0.025,-0.088 -0.077,-0.169 -0.147,-0.22c-6.953,-5.67 -18.846,-27.601 -22.215,-35.736c-0.07,-0.162 -0.291,-0.671 -0.613,-1.417c-1.435,-3.314 -4.798,-11.072 -5.481,-13.25c-0.402,-1.277 -1.129,-6.739 -1.454,-10.297c0.473,-0.118 0.868,0.059 1.037,0.649c0.458,1.565 1.543,6.902 1.997,7.39c0.543,0.568 3.259,3.151 4.049,4.126c0.793,0.981 1.27,1.993 1.303,2.539c0.026,0.458 0.48,0.399 0.506,0.074c0.025,-0.332 0.413,-2.665 -1.204,-4.311c-1.48,-1.498 -3.244,-2.628 -3.709,-3.115c-0.14,-0.281 -0.686,-4.303 -1.591,-7.168c-0.406,-1.291 -1.702,-1.306 -2.469,-1.173c-0.029,-0.355 -0.052,-0.687 -0.066,-0.967c-0.104,-2.097 0.125,-2.635 0.273,-2.768c0.025,-0.015 0.077,-0.067 0.325,-0.03c0.867,0.133 1.915,1.765 2.731,4.259l0.232,0.724c0.524,1.646 1.063,3.351 2.676,6.142c0.122,0.214 0.395,0.287 0.609,0.161c0.214,-0.125 0.288,-0.398 0.166,-0.612c-0.627,-1.078 -1.085,-1.993 -1.439,-2.805c0.771,0.074 1.398,0.547 1.897,2.067c0.52,1.579 1.535,2.797 2.277,3.683c0.244,0.296 0.462,0.547 0.609,0.768c2.266,3.307 0.465,6.451 0.392,6.584c-0.056,0.089 -0.078,0.2 -0.06,0.303c0.333,1.831 1.289,4.156 2.075,5.721c1.202,2.392 3.196,4.96 5.768,7.418c7.74,7.397 13.512,14.128 18.377,24.795c0.014,0.037 0.037,0.074 0.066,0.111c1.181,1.373 2.982,3.204 5.072,5.33c4.48,4.561 10.054,10.23 12.116,14.106c0.034,0.066 0.085,0.125 0.148,0.162c0.923,0.613 2.391,1.041 4.097,1.543c3.303,0.967 7.415,2.178 10.187,5.308c0.051,0.059 0.11,0.095 0.177,0.118c0.313,0.598 0.76,1.262 1.406,1.941c0.089,0.096 0.203,0.14 0.321,0.14c0.115,-0 0.221,-0.037 0.31,-0.125c0.181,-0.17 0.185,-0.451 0.015,-0.627c-1.591,-1.676 -1.842,-3.242 -1.923,-3.758c-0.192,-1.211 -0.089,-2.48 0.022,-3.816c0.03,-0.325 0.056,-0.657 0.078,-0.997c1.513,1.344 3.48,2.923 4.344,3.071c1.199,0.199 2.875,0.207 3.078,0.214c0.207,-0.007 1.879,-0.015 3.081,-0.214c0.86,-0.148 2.832,-1.727 4.341,-3.071c0.026,0.34 0.052,0.672 0.077,0.997c0.112,1.336 0.214,2.605 0.022,3.816c-0.081,0.516 -0.331,2.082 -1.922,3.758c-0.17,0.176 -0.162,0.457 0.014,0.627c0.089,0.088 0.2,0.125 0.31,0.125c0.118,-0 0.237,-0.044 0.325,-0.14c0.646,-0.679 1.089,-1.343 1.403,-1.941c0.066,-0.023 0.129,-0.059 0.177,-0.118c2.776,-3.13 6.887,-4.341 10.19,-5.308c1.702,-0.502 3.171,-0.93 4.093,-1.543c0.063,-0.037 0.115,-0.096 0.152,-0.162c2.059,-3.876 7.632,-9.545 12.113,-14.106c2.09,-2.126 3.894,-3.957 5.075,-5.33c0.026,-0.037 0.048,-0.074 0.067,-0.111c4.864,-10.667 10.637,-17.398 18.372,-24.795c2.573,-2.458 4.57,-5.026 5.769,-7.418c0.786,-1.565 1.746,-3.89 2.074,-5.721c0.019,-0.103 0,-0.214 -0.055,-0.303c-0.078,-0.133 -1.878,-3.277 0.388,-6.584c0.151,-0.221 0.365,-0.472 0.612,-0.768c0.742,-0.886 1.757,-2.104 2.278,-3.683c0.498,-1.52 1.125,-1.993 1.897,-2.067c-0.358,0.812 -0.816,1.727 -1.44,2.805c-0.122,0.214 -0.052,0.487 0.162,0.612c0.214,0.126 0.488,0.053 0.613,-0.161c1.613,-2.791 2.152,-4.496 2.676,-6.142l0.232,-0.724c0.817,-2.494 1.86,-4.126 2.728,-4.259c0.247,-0.037 0.299,0.015 0.325,0.03c0.148,0.133 0.377,0.671 0.273,2.768m-87.432,56.144c-0.029,-0.582 -0.059,-1.188 -0.084,-1.837c-0.137,-3.566 0.796,-6.422 2.778,-8.482c1.968,-2.045 4.913,-3.174 8.301,-3.181l0.033,-0c3.385,0.007 6.33,1.136 8.297,3.181c1.982,2.06 2.92,4.916 2.779,8.482c-0.022,0.649 -0.051,1.255 -0.081,1.837c-0.34,3.278 -1.258,9.449 -2.336,12.313c-1.392,3.698 -5.045,7.301 -5.651,7.78c-0.602,0.473 -2.096,0.561 -3.008,0.561l-0.033,-0c-0.915,-0 -2.407,-0.088 -3.008,-0.561c-0.609,-0.479 -4.263,-4.082 -5.65,-7.78c-1.078,-2.864 -1.997,-9.035 -2.337,-12.313m23.086,31.166c-2.391,0.318 -6.484,0.812 -8.537,3.086c-0.734,0.811 0.122,2.052 1.045,1.328c1.58,-1.232 3.819,-2.746 7.625,-3.469c0.498,-0.096 0.502,-1.027 -0.133,-0.945m-3.263,44.467c-2.302,-3.403 -1.819,-8.43 -5.779,-9.323c-0.62,-0.141 -0.886,0.649 -0.288,0.878c0.276,0.096 0.513,0.281 0.734,0.517c0.236,0.288 0.487,0.672 0.742,1.115c1.207,2.414 1.946,6.731 5.222,8.917c0.285,0.192 0.525,0.096 0.647,-0.089c0.007,-0.015 0.021,-0.015 0.029,-0.029c0.133,-0.185 0.092,-0.436 -0.074,-0.584c-0.011,-0.014 -0.018,-0.029 -0.036,-0.044c-0.458,-0.399 -0.842,-0.842 -1.17,-1.321c-0.008,-0.015 -0.019,-0.023 -0.027,-0.037m-12.352,-41.381c-2.053,-2.274 -6.142,-2.768 -8.537,-3.086c-0.635,-0.082 -0.632,0.849 -0.133,0.945c3.805,0.723 6.045,2.237 7.625,3.469c0.923,0.724 1.782,-0.517 1.045,-1.328m5.853,-28.944c0,-0.339 0.026,-1.698 0.222,-1.75c0.188,-0.044 0.582,0.089 1.368,0.34c0.067,0.022 0.137,0.059 0.196,0.074c0.886,0.199 2.207,0.088 2.706,-0.155c0.358,-0.177 1.062,-0.665 1.062,-1.617c0,-0.236 -1.679,-0.804 -4.229,-0.347c-0.033,0.008 -0.074,0.023 -0.111,0.045l-0.004,-0c-0.339,0.022 -0.059,-1.063 0.694,-1.174c0.938,-0.14 1.901,-0.236 2.758,-0.214c0.841,0.022 1.586,0.302 2.033,0.472c0.709,0.273 0.915,-0.531 0.661,-0.716c-0.48,-0.354 -1.61,-1.011 -2.104,-1.107c-0.491,-0.103 -3.764,-0.229 -5.975,0.606c-0.019,0.007 -0.022,0.021 -0.037,0.029c-0.037,0.014 -0.067,0.037 -0.078,0.067l-0.003,0.006c-0.008,0.015 -0.012,0.037 -0.015,0.052c-0.126,0.362 -0.173,1.396 -0.233,2.053c-0.033,0.339 0.137,3.181 0.307,3.993c0.11,0.531 0.782,-0.31 0.782,-0.657m-5.909,-3.455c-2.547,-0.457 -4.23,0.111 -4.23,0.347c0,0.952 0.705,1.44 1.067,1.617c0.494,0.243 1.819,0.354 2.705,0.155c0.465,-0.104 1.207,-0.65 1.443,-0.886c0.233,-0.236 -0.557,-1.159 -0.985,-1.233m1.417,8.297c0.613,0.17 1.513,0.665 2.163,0.679l0,0.008l0.015,-0.008c0.003,-0 0.011,0.008 0.011,0.008l0.004,-0.008c0.653,-0.014 1.554,-0.509 2.162,-0.679c0.631,-0.177 0.078,-0.774 -0.48,-0.774c-0.553,-0 -1.199,0.287 -1.697,0.294c-0.495,-0.007 -1.144,-0.294 -1.694,-0.294c-0.557,-0 -1.112,0.597 -0.484,0.774m0.137,-9.013c0.27,0.096 0.941,-1.203 0.472,-1.372c-2.211,-0.835 -5.485,-0.709 -5.979,-0.606c-0.494,0.096 -1.621,0.753 -2.1,1.107c-0.254,0.185 -0.052,0.989 0.661,0.716c0.443,-0.17 1.192,-0.45 2.033,-0.472c1.547,-0.045 3.473,0.288 4.913,0.627" style="fill:#fff;fill-rule:nonzero;"/><path d="M291.361,510.537c-0.664,-6.776 6.208,-19.259 8.016,-33.299c5.418,-3.883 11.313,-3.27 16.834,-1.011l0,54.403c-6.673,-2.06 -13.811,-1.89 -21.503,2.037c0.909,-6.304 -2.58,-14.269 -3.347,-22.13" style="fill:#fff;fill-rule:nonzero;"/><path d="M260.591,510.537c0.664,-6.776 -6.208,-19.259 -8.017,-33.299c-5.418,-3.883 -11.312,-3.27 -16.833,-1.011l-0,54.403c6.669,-2.06 13.807,-1.89 21.498,2.037c-0.904,-6.304 2.58,-14.269 3.352,-22.13" style="fill:#fff;fill-rule:nonzero;"/><path d="M478.789,299.473c-12.073,14.557 -16.664,38.311 -9.866,60.08c0.306,0.988 2.229,0.774 1.916,-0.805c-1.831,-9.205 -1.934,-18.425 -0.517,-27.121c1.879,5.382 3.506,11.383 4.248,17.768c0.14,1.233 2.019,1.07 1.934,-0.214c-0.572,-8.459 -2.772,-17.244 -4.89,-23.732c0.745,-2.916 1.665,-5.75 2.757,-8.481c3.333,10.135 6.094,22.359 6.414,30.958c0.052,1.292 1.96,1.344 1.96,0.052c-0,-9.523 -2.121,-25.4 -5.89,-36.48c0.926,-1.801 1.923,-3.551 3.012,-5.233c4.882,14.733 8.341,32.427 9.551,47.899c0.096,1.247 1.945,1.151 1.901,-0.104c-0.557,-15.678 -3.207,-36.155 -8.588,-53.856c-0.617,-2.03 -2.783,-2.126 -3.942,-0.731m-384.211,-78.023c-2.037,-4.164 -9.98,-14.602 -12.014,-19.585c-2.122,-5.196 -2.491,-8.614 -2.561,-15.782c1.572,3.677 8.297,10.756 9.799,12.881c2.587,3.64 3.935,7.249 4.488,14.262c0.162,2.059 0.255,5.492 0.288,8.224m-15.985,-47.723c-0,-2.001 -2.75,-2.2 -2.75,-0.207c-0,2.295 -0.085,9.434 -0.092,11.302c-0.063,12.622 -0,15.626 3.255,21.606c2.499,4.576 13.882,17.937 16.391,29.216c0.384,1.749 4.145,2.015 4.145,0l-0,-23.215c-0,-11.693 -6.26,-17.753 -9.74,-21.37c-4.99,-5.173 -11.209,-11.176 -11.209,-17.332m28.94,393.744c-1.262,-3.211 -5.175,-4.015 -6.393,0c-7.909,26.11 1.052,49.015 16.948,60.249c1.262,0.894 2.536,-0.856 1.355,-1.735c-7.156,-5.314 -12.228,-13.604 -14.46,-23.628c4.174,4.857 9.049,9.818 12.385,12.801c0.879,0.781 2.171,-0.496 1.443,-1.315c-4.856,-5.47 -9.536,-10.585 -14.973,-19.56c-0.129,-1.995 -0.159,-4.032 -0.078,-6.113c6.02,7.839 11.464,14.504 18.395,21.931c0.802,0.855 2.167,-0.488 1.44,-1.307c-4.592,-5.182 -13.593,-17.096 -19.362,-26.294c0.233,-1.801 0.539,-3.632 0.934,-5.476c6.407,11.928 20.934,27.82 28.213,33.616c1.236,0.989 2.583,-0.754 1.435,-1.935c-8.983,-9.256 -21.547,-26.618 -27.282,-41.234m65.918,81.582c-1.949,0 -3.536,-1.587 -3.536,-3.536c-0,-1.948 1.587,-3.536 3.536,-3.536c1.952,0 3.539,1.588 3.539,3.536c-0,1.949 -1.587,3.536 -3.539,3.536m-0,-11.604c-4.451,0 -8.072,3.617 -8.072,8.068c-0,4.452 3.621,8.077 8.072,8.077c4.451,-0 8.075,-3.625 8.075,-8.077c-0,-4.451 -3.624,-8.067 -8.075,-8.067m284.212,-424.224c0.549,-7.012 1.9,-10.621 4.488,-14.262c1.501,-2.125 8.227,-9.204 9.799,-12.88c-0.071,7.168 -0.443,10.586 -2.562,15.781c-2.033,4.983 -9.98,15.421 -12.017,19.585c0.037,-2.732 0.129,-6.165 0.292,-8.224m-1.107,22.418c2.505,-11.279 13.892,-24.64 16.39,-29.216c3.256,-5.98 3.315,-8.984 3.256,-21.606c-0.008,-1.868 -0.096,-9.007 -0.096,-11.302c-0,-1.993 -2.747,-1.794 -2.747,0.207c-0,6.156 -6.218,12.159 -11.208,17.332c-3.481,3.617 -9.741,9.677 -9.741,21.37l-0,23.215c-0,2.015 3.758,1.749 4.146,0m-78.058,413.41c-1.949,-0 -3.536,-1.588 -3.536,-3.537c-0,-1.948 1.587,-3.536 3.536,-3.536c1.952,0 3.536,1.588 3.536,3.536c-0,1.949 -1.584,3.537 -3.536,3.537m-0,-11.605c-4.451,0 -8.072,3.617 -8.072,8.068c-0,4.452 3.621,8.077 8.072,8.077c4.451,-0 8.076,-3.625 8.076,-8.077c-0,-4.451 -3.625,-8.067 -8.076,-8.067m127.002,-187.207l-20.529,-16.01l1.83,-3.115c1.115,-1.992 0.547,-4.488 -1.313,-5.81l-6.19,-4.627c-1.945,-1.388 -4.743,-1.019 -6.485,0.974c-2.222,2.532 -4.816,7.485 -5.85,10.453c-0.727,2.096 -0.188,4.015 1.281,5.204l9.873,8.149l-8.537,12.334c-7.891,-10.57 -12.552,-23.584 -12.622,-36.295l0.007,-27.327c-0,-12.415 16.469,-21.428 23.075,-24.426c6.171,3.019 12.969,8.549 19.27,14.158c0.871,0.584 1.808,-0.856 1.181,-1.394c-5.182,-6.283 -11.091,-11.834 -17.687,-17.192c-0.967,-0.783 -2.1,-1.167 -3.317,-0.621c-12.228,5.418 -18.894,10.889 -22.515,15.635l0.033,-98.656c-0,-44.977 28.375,-71.75 47.45,-78.77c3.104,-1.143 5.363,-2.731 6.968,-4.509c-0.011,1.158 -0.081,2.31 -0.203,3.454c-4.311,4.348 -16.372,8.526 -21.602,12.844c-0.978,0.804 -0.159,2.458 1.217,1.55c3.75,-2.474 13.247,-5.477 19.444,-8.872c-0.243,1.04 -0.51,2.081 -0.808,3.122c-5.625,2.761 -17.779,7.632 -22.204,11.198c-1.203,0.967 -0.082,2.399 0.896,1.823c5.695,-3.351 14.42,-5.95 19.569,-7.692c-0.295,0.827 -0.594,1.654 -0.907,2.495c-0.245,0.656 -0.112,1.387 0.368,1.904c1.052,1.123 2.038,2.481 2.945,3.987c-4.753,-0.494 -12.375,-0.325 -21.539,2.355c-1.089,0.317 -0.731,2.229 0.391,1.971c10.67,-2.422 19.407,-1.005 23.367,0.022c0.701,1.646 1.306,3.366 1.79,5.115c-6.706,-3.026 -16.631,-3.026 -22.308,-1.95c-1.206,0.223 -1.062,2.142 0.237,1.994c8.651,-0.982 18.199,1.049 23.137,5.109c0.285,2.118 0.362,4.169 0.178,6.053c-4.924,-6.313 -13.635,-8.779 -21.747,-7.944c-8.507,0.863 -17.56,9.944 -17.601,22.292c-0.085,26.206 39.015,76.985 39.015,129.822c-0,20.107 -5.802,46.933 -9.558,61.193m-5.242,12.461c-5.849,-1.454 -14.881,-1.307 -24.392,2.317c-1.152,-1.135 -2.248,-2.325 -3.311,-3.549l9.072,-13.111l18.631,14.342Zm3.938,-7.72c-0.335,1.173 -0.642,2.178 -0.9,2.966l-30.911,-24.579c0.58,-1.78 2.927,-6.378 4.411,-8.195l5.684,3.957l-3.367,6.289l25.083,19.563Zm3.315,19.687c-3.595,-0.215 -7.729,0.715 -11.593,2.308c-14.83,6.12 -29.342,18.507 -27.866,46.019c2.706,74.981 -0.472,107.572 -46.46,141.026c-0.38,0.273 -0.775,0.554 -1.17,0.834c2.846,-8.481 3.281,-22.914 0.798,-31.992l-0.004,-0c-0.178,-0.422 -1.1,-1.462 -1.635,-1.595c-5.769,-1.468 -23.086,-5.838 -23.086,-5.838c-0.968,-0.207 -1.543,1.373 -0.569,1.727l20.691,8.504c1.373,5.337 2.717,30.25 -8.482,36.805c-17.04,9.256 -40.916,17.369 -67.911,15.56c0.28,-0.443 5.717,-10.925 7.976,-15.287l3.067,2.31c1.532,1.108 3.529,1.123 5.36,-0.125c2.59,-1.779 5.989,-5.987 7.849,-8.799c1.459,-2.2 1.082,-4.998 -0.76,-6.511l-6.086,-4.761c-1.764,-1.447 -4.325,-1.343 -5.957,0.252l-2.517,2.582l-15.656,-11.714c35.048,-12.113 64.881,-33.505 86.826,-62.419c23.95,-31.549 36.614,-69.299 36.614,-109.16l0.006,-27.563c0.709,1.654 1.51,3.27 2.411,4.879c1.513,5.263 1.794,22.721 1.1,25.961l-0.004,0.008c-0.166,1.506 1.664,1.698 1.967,0.391c0.993,-4.229 1.646,-12.504 1.52,-19.429c1.071,1.411 2.223,2.821 3.466,4.238c-0.122,5.344 -1.181,13.486 -2.908,20.749c-0.295,1.241 1.51,1.595 1.953,0.48c1.52,-3.838 3.314,-10.851 4.484,-17.413c1.162,1.196 2.381,2.406 3.676,3.639c2.192,-0.745 4.255,-1.321 6.215,-1.764c-4.554,4.097 -9.448,10.622 -12.05,16.579c-0.525,1.204 1.229,1.941 1.79,0.908c4.292,-7.861 11.423,-14.904 18.911,-18.579c2.562,-0.03 4.857,0.243 6.925,0.737c-6.935,2.068 -16.329,9.309 -21.817,16.742c-0.628,0.82 0.668,2.185 1.546,1.277c8.143,-9.906 19.791,-15.147 26.851,-15.324c1.775,1.1 3.274,2.384 4.529,3.758m4.403,7.72c1.207,2.119 1.561,5.182 0.17,7.545c-0.314,-0.422 -0.668,-0.835 -1.048,-1.241c-3.256,-3.727 -7.323,-6.318 -12.287,-7.714c6.204,-2.148 11.877,-0.856 13.165,1.41m-176.407,203.631c-4.879,-5.279 -18.391,-19.888 -21.96,-23.74l6.101,-11.051l24.843,18.712c-1.923,3.449 -7.182,12.889 -8.984,16.079m-7.245,-38.304l21.618,15.863l4.846,-4.821l5.307,4.452c-1.366,1.905 -4.355,5.293 -6.046,6.814l-29.098,-21.297c1.015,-0.302 2.417,-0.715 3.373,-1.011m4.13,49.332c-1.078,0.686 -2.27,1.439 -3.595,2.229c-0.066,0.037 -0.129,0.059 -0.195,0.096c-3.053,1.713 -5.846,-0.356 -7.91,-2.85l-15.036,-18.609c-1.277,-1.49 -4.089,0.251 -3.148,2.126l11.021,20.086c0.025,0.074 0.037,0.155 0.077,0.229c1.44,2.664 0.705,5.794 -1.587,6.584c-1.38,0.45 -2.816,0.886 -4.33,1.306c-3.738,0.99 -5.868,-0.627 -7.739,-4.421l-9.087,-19c-0.938,-1.964 -4.115,-0.908 -3.569,1.299l5.152,19.849c0.764,2.93 0.215,5.204 -2.705,5.507c-1.58,0.155 -3.215,0.281 -4.894,0.383c-2.989,0.17 -4.547,-1.955 -5.019,-4.864l-1.96,-19.244c-0.085,-0.878 -0.975,-1.69 -1.89,-1.705l-0.004,-0c-0.915,0.015 -1.804,0.827 -1.893,1.705l-1.956,19.244c-0.476,2.909 -2.03,5.034 -5.023,4.864c-1.68,-0.102 -3.311,-0.228 -4.891,-0.383c-2.919,-0.303 -3.469,-2.577 -2.705,-5.507l5.153,-19.849c0.542,-2.207 -2.632,-3.263 -3.57,-1.299l-9.087,19c-1.871,3.794 -4.001,5.411 -7.739,4.421c-1.514,-0.42 -2.953,-0.856 -4.329,-1.306c-2.293,-0.79 -3.027,-3.92 -1.588,-6.584c0.041,-0.074 0.052,-0.155 0.078,-0.229l11.021,-20.086c0.941,-1.875 -1.875,-3.616 -3.152,-2.126l-15.033,18.609c-2.063,2.488 -4.857,4.563 -7.91,2.85c-0.066,-0.037 -0.129,-0.059 -0.195,-0.096c-1.325,-0.79 -2.517,-1.543 -3.595,-2.23c-1.845,-1.187 -1.949,-3.971 -0,-6.783c0.425,-0.612 23.319,-27.43 23.319,-27.43l-5.621,-11.508c5.728,1.188 13.39,2.51 18.306,2.953l1.44,4.665c0.165,0.531 -0.27,1.063 -0.823,1.011c-1.245,-0.125 -2.359,-0.251 -3.381,-0.391c-0.399,-0.059 -0.728,-0.325 -0.864,-0.702l-0.919,-2.539c-0.395,-0.797 -2.199,-0.745 -2.229,0.355l0.03,4.613c0.006,1.27 0.955,2.333 2.21,2.495l6.791,0.849c3.211,0.428 4.887,-2.399 4.012,-5.441l-2.041,-6.606c-0.483,-1.565 -1.841,-2.666 -3.462,-2.798c-6.64,-0.553 -19.864,-3.078 -24.079,-4.289c-79.382,-21.695 -132.7,-90.462 -132.7,-171.106l-0.018,-52.24c0.003,-0.325 0.011,-0.635 0.011,-0.952l-0.011,-0l-0.048,-139.529c-0,-42.325 -25.364,-73.808 -50.42,-83.027c-6.16,-2.267 -7.74,-6.534 -7.165,-9.767c0.008,-0.029 0.015,-0.067 0.019,-0.089c0.192,-0.635 0.41,-1.262 0.65,-1.897c0.723,-1.462 1.96,-2.805 3.691,-3.668c0.476,3.527 1.384,10.267 1.384,10.267c0.111,0.813 0.86,1.38 1.672,1.277c0.738,-0.102 1.276,-0.722 1.291,-1.447l-0,-15.611l-0.015,-0l-0,-139.359l450.768,0.001l-0,139.358l-0.01,-0l-0,15.611c0.014,0.725 0.549,1.345 1.288,1.447c0.815,0.103 1.564,-0.464 1.672,-1.276c-0,-0 0.911,-6.74 1.387,-10.268c1.731,0.864 2.967,2.207 3.691,3.669c0.236,0.635 0.454,1.262 0.646,1.896c0.007,0.023 0.014,0.06 0.022,0.09c0.576,3.233 -1.004,7.5 -7.168,9.766c-25.053,9.219 -50.417,40.702 -50.417,83.028l-0.047,139.528l-0.012,-0c-0,0.317 0.008,0.627 0.008,0.952l-0.015,52.24c-0,80.644 -53.318,149.411 -132.7,171.106c-4.214,1.211 -17.442,3.736 -24.079,4.288c-1.62,0.133 -2.978,1.234 -3.462,2.798l-2.041,6.607c-0.874,3.042 0.801,5.869 4.009,5.441l6.79,-0.85c1.259,-0.161 2.204,-1.224 2.211,-2.494l0.03,-4.613c-0.026,-1.1 -1.831,-1.152 -2.225,-0.355l-0.92,2.539c-0.136,0.377 -0.468,0.643 -0.864,0.702c-1.025,0.14 -2.14,0.266 -3.38,0.391c-0.554,0.052 -0.989,-0.48 -0.827,-1.011l1.443,-4.665c4.913,-0.443 12.579,-1.765 18.303,-2.953l-5.618,11.508c-0,-0 22.891,26.817 23.319,27.43c1.949,2.812 1.842,5.596 -0,6.784m-124.93,-27.106l24.843,-18.712l6.1,11.05c-3.569,3.853 -17.084,18.462 -21.963,23.74c-1.802,-3.19 -7.057,-12.63 -8.98,-16.078m16.225,-22.226c0.9,0.28 2.306,0.701 3.37,1.019l-29.096,21.289c-1.686,-1.521 -4.679,-4.909 -6.045,-6.814l5.311,-4.452l4.846,4.821l21.614,-15.863Zm-79.873,24.751c-11.195,-6.555 -9.852,-31.468 -8.482,-36.805l20.694,-8.504c0.975,-0.354 0.395,-1.934 -0.572,-1.727c-0,-0 -17.313,4.37 -23.082,5.838c-0.539,0.134 -1.462,1.173 -1.639,1.595c-2.484,9.078 -2.044,23.51 0.798,31.992c-0.396,-0.28 -0.79,-0.561 -1.17,-0.834c-45.988,-33.453 -49.166,-66.044 -46.464,-141.026c1.476,-27.511 -13.033,-39.898 -27.862,-46.018c-3.865,-1.594 -7.998,-2.524 -11.597,-2.309c1.259,-1.374 2.753,-2.658 4.529,-3.758c7.064,0.177 18.712,5.418 26.854,15.324c0.879,0.908 2.17,-0.457 1.546,-1.277c-5.491,-7.433 -14.885,-14.674 -21.82,-16.742c2.067,-0.494 4.366,-0.767 6.924,-0.737c7.492,3.675 14.623,10.718 18.916,18.579c0.561,1.033 2.314,0.296 1.786,-0.908c-2.599,-5.957 -7.492,-12.482 -12.047,-16.579c1.96,0.443 4.024,1.019 6.216,1.764c1.291,-1.233 2.513,-2.443 3.675,-3.639c1.171,6.562 2.964,13.575 4.489,17.413c0.439,1.115 2.244,0.761 1.948,-0.48c-1.727,-7.263 -2.786,-15.405 -2.908,-20.749c1.244,-1.417 2.395,-2.827 3.462,-4.238c-0.122,6.925 0.532,15.2 1.521,19.429c0.306,1.307 2.137,1.115 1.971,-0.391l-0.004,-0.008c-0.697,-3.24 -0.413,-20.698 1.096,-25.961c0.904,-1.609 1.702,-3.225 2.41,-4.879l0.011,27.563c-0,39.861 12.66,77.611 36.61,109.16c21.949,28.914 51.782,50.306 86.826,62.419l-15.652,11.714l-2.517,-2.582c-1.635,-1.595 -4.197,-1.699 -5.958,-0.252l-6.09,4.761c-1.841,1.513 -2.217,4.311 -0.756,6.511c1.86,2.812 5.255,7.02 7.85,8.799c1.831,1.248 3.827,1.233 5.359,0.125l3.067,-2.31c2.259,4.362 7.696,14.844 7.972,15.287c-26.991,1.809 -50.867,-6.304 -67.91,-15.56m-102.897,-183.774c-0.38,0.406 -0.735,0.819 -1.052,1.241c-1.388,-2.363 -1.033,-5.426 0.174,-7.545c1.288,-2.266 6.957,-3.558 13.165,-1.41c-4.968,1.396 -9.032,3.987 -12.287,7.714m29.405,-40.333l9.076,13.11c-1.063,1.225 -2.16,2.414 -3.311,3.55c-9.511,-3.624 -18.417,-3.897 -24.268,-2.443l18.503,-14.217Zm-0.849,-19.23l5.683,-3.956c1.484,1.816 3.832,6.415 4.411,8.194l-30.914,24.58c-0.255,-0.789 -0.561,-1.793 -0.897,-2.966l25.083,-19.562l-3.366,-6.29Zm-32.579,-40.082c-0,-52.837 39.097,-103.616 39.016,-129.821c-0.041,-12.349 -9.095,-21.429 -17.605,-22.292c-8.109,-0.835 -16.819,1.631 -21.747,7.943c-0.181,-1.883 -0.104,-3.935 0.177,-6.053c4.939,-4.06 14.486,-6.09 23.138,-5.109c1.303,0.148 1.443,-1.771 0.236,-1.993c-5.673,-1.077 -15.601,-1.077 -22.304,1.949c0.484,-1.749 1.089,-3.469 1.791,-5.115c3.96,-1.027 12.696,-2.444 23.366,-0.022c1.122,0.258 1.48,-1.654 0.391,-1.971c-9.164,-2.68 -16.786,-2.849 -21.539,-2.355c0.907,-1.506 1.893,-2.864 2.945,-3.987c0.48,-0.516 0.613,-1.247 0.369,-1.904c-0.313,-0.841 -0.613,-1.668 -0.908,-2.495c5.149,1.743 13.874,4.341 19.569,7.692c0.974,0.576 2.1,-0.856 0.897,-1.823c-4.426,-3.566 -16.58,-8.437 -22.204,-11.198c-0.299,-1.041 -0.565,-2.082 -0.808,-3.122c6.197,3.395 15.693,6.399 19.439,8.872c1.381,0.908 2.196,-0.746 1.222,-1.55c-5.234,-4.318 -17.291,-8.496 -21.606,-12.844c-0.119,-1.144 -0.192,-2.296 -0.2,-3.454c1.606,1.778 3.864,3.366 6.969,4.509c19.07,7.02 47.449,33.793 47.449,78.77l0.033,98.656c-3.621,-4.746 -10.286,-10.217 -22.514,-15.635c-1.218,-0.546 -2.351,-0.162 -3.318,0.621c-6.599,5.358 -12.505,10.909 -17.686,17.192c-0.628,0.538 0.31,1.978 1.177,1.394c6.304,-5.609 13.102,-11.139 19.27,-14.158c6.614,2.998 23.075,12.011 23.075,24.426l0.011,27.327c-0.07,12.711 -4.732,25.725 -12.623,36.295l-8.54,-12.334l9.873,-8.149c1.472,-1.189 2.011,-3.108 1.284,-5.204c-1.033,-2.968 -3.631,-7.921 -5.85,-10.453c-1.746,-1.993 -4.544,-2.362 -6.488,-0.974l-6.19,4.628c-1.86,1.322 -2.421,3.817 -1.314,5.809l1.834,3.115l-20.528,16.011c-3.757,-14.261 -9.559,-41.086 -9.559,-61.194m443.685,-129.821c-0,-11.736 10.356,-17.457 13.526,-17.782c8.512,-0.871 18.695,3.447 20.514,11.884c0.402,1.861 3.591,2.274 4.282,0.421c3.798,-10.127 2.616,-25.887 -7.193,-35.292c6.923,-13.448 6.137,-25.141 1.859,-33.372c-1.406,-3.041 -4.023,-5.359 -7.293,-6.525l-0,-145.108l-460.581,-0l-0,145.101c-3.278,1.165 -5.898,3.484 -7.312,6.532c-4.274,8.231 -5.063,19.924 1.864,33.372c-9.813,9.405 -10.991,25.165 -7.197,35.292c0.694,1.853 3.883,1.44 4.285,-0.421c1.816,-8.437 12.002,-12.755 20.51,-11.884c3.174,0.325 13.527,6.046 13.527,17.782c-0,22.448 -41.426,73.344 -40.223,129.866c0.628,29.689 7.113,60.153 13.468,77.544c-5.436,4.223 -8.312,10.312 -9.504,14.962l0.015,0.008c-0.281,1.048 -0.446,2.229 -0.469,3.558c-0.21,4.001 2.336,9.079 4.761,10.637c0.901,0.583 1.842,0.066 2.086,-0.391c3.868,-7.079 10.25,-11.545 14.874,-13.132c15.055,6.747 23.182,19.487 22.444,40.798c-2.945,84.896 1.325,110.983 47.836,146.378c16.078,12.232 53.802,28.316 85.793,24.736c0.041,2.65 1.171,5.396 3.924,7.352c13.073,9.272 34.347,17.886 59.599,17.886l0.004,-0c25.249,-0 46.527,-8.614 59.603,-17.886c2.75,-1.956 3.88,-4.702 3.916,-7.352c31.992,3.58 69.72,-12.504 85.793,-24.736c46.515,-35.395 50.786,-61.482 47.84,-146.378c-0.737,-21.311 7.39,-34.051 22.441,-40.798c4.628,1.587 11.009,6.053 14.874,13.132c0.244,0.457 1.189,0.974 2.089,0.391c2.421,-1.558 4.971,-6.636 4.757,-10.637c-0.018,-1.329 -0.184,-2.51 -0.465,-3.558l0.012,-0.008c-1.189,-4.65 -4.068,-10.739 -9.505,-14.962c6.36,-17.391 12.841,-47.855 13.472,-77.544c1.203,-56.522 -40.226,-107.418 -40.226,-129.866m13.808,151.073c-1.95,-0 -3.536,-1.587 -3.536,-3.535c-0,-1.95 1.586,-3.536 3.536,-3.536c1.952,-0 3.539,1.586 3.539,3.536c-0,1.948 -1.587,3.535 -3.539,3.535m-0,-11.611c-4.452,-0 -8.072,3.624 -8.072,8.076c-0,4.45 3.62,8.075 8.072,8.075c4.45,-0 8.075,-3.625 8.075,-8.075c-0,-4.452 -3.625,-8.076 -8.075,-8.076m-436.825,4.54c1.953,-0 3.54,1.586 3.54,3.536c-0,1.948 -1.587,3.535 -3.54,3.535c-1.948,-0 -3.536,-1.587 -3.536,-3.535c-0,-1.95 1.588,-3.536 3.536,-3.536m-0,11.611c4.456,-0 8.076,-3.625 8.076,-8.075c-0,-4.452 -3.62,-8.076 -8.076,-8.076c-4.451,-0 -8.072,3.624 -8.072,8.076c-0,4.45 3.621,8.075 8.072,8.075m4.972,-60.677c1.211,-15.472 4.669,-33.166 9.552,-47.899c1.085,1.682 2.085,3.432 3.011,5.233c-3.771,11.08 -5.89,26.957 -5.89,36.48c-0,1.292 1.908,1.24 1.956,-0.052c0.321,-8.599 3.086,-20.823 6.415,-30.958c1.096,2.731 2.015,5.565 2.761,8.481c-2.119,6.488 -4.322,15.273 -4.891,23.732c-0.088,1.284 1.79,1.447 1.934,0.214c0.742,-6.385 2.37,-12.386 4.248,-17.768c1.418,8.696 1.314,17.916 -0.517,27.121c-0.313,1.579 1.61,1.793 1.917,0.805c6.798,-21.769 2.206,-45.523 -9.866,-60.08c-1.159,-1.395 -3.326,-1.299 -3.942,0.731c-5.381,17.701 -8.031,38.178 -8.588,53.856c-0.045,1.255 1.804,1.351 1.9,0.104m381.886,213.307c-5.736,14.616 -18.303,31.978 -27.287,41.234c-1.143,1.181 0.2,2.923 1.436,1.934c7.279,-5.795 21.805,-21.687 28.217,-33.616c0.394,1.845 0.701,3.676 0.93,5.477c-5.766,9.198 -14.767,21.112 -19.362,26.294c-0.728,0.819 0.642,2.162 1.443,1.306c6.931,-7.426 12.375,-14.091 18.395,-21.93c0.078,2.081 0.052,4.118 -0.077,6.112c-5.437,8.976 -10.121,14.091 -14.974,19.561c-0.728,0.819 0.564,2.096 1.443,1.314c3.336,-2.982 8.208,-7.943 12.382,-12.8c-2.229,10.024 -7.3,18.314 -14.457,23.628c-1.18,0.879 0.093,2.629 1.355,1.735c15.896,-11.234 24.858,-34.14 16.948,-60.25c-1.217,-4.014 -5.13,-3.211 -6.392,0m-158.957,83.148c-3.089,0.155 -6.053,0.192 -9.489,0.192c-3.432,-0 -6.399,-0.037 -9.485,-0.192c-0.72,-0.029 -1.277,0.627 -1.133,1.337l2.502,11.862c0.207,0.996 1.063,1.638 2.067,1.801c1.713,0.257 3.702,0.384 6.049,0.384l0.004,-0c2.348,-0 4.337,-0.127 6.045,-0.384c1.008,-0.163 1.864,-0.805 2.072,-1.801l2.498,-11.862c0.147,-0.71 -0.41,-1.366 -1.13,-1.337" style="fill:#231f20;fill-rule:nonzero;"/><path d="M111.744,78.079c-0,-1.757 -0.732,-2.928 -2.138,-2.928l-1.171,-0l-0,5.857l1.171,-0c1.406,-0 2.138,-1.172 2.138,-2.929m-6.999,13.353l-0,-19.532l5.271,-0c3.778,-0 5.505,2.9 5.505,6.179c-0,3.279 -1.727,6.179 -5.505,6.179l-1.581,-0l-0,7.174l-3.69,-0Z" style="fill:#231f20;fill-rule:nonzero;"/><path d="M125.448,81.68c-0,-3.895 -0.585,-6.822 -2.313,-6.822c-1.757,0 -2.343,2.927 -2.343,6.822c-0,3.836 0.586,6.823 2.343,6.823c1.728,0 2.313,-2.987 2.313,-6.823m-8.433,0c-0,-5.739 1.815,-10.102 6.12,-10.102c4.275,0 6.09,4.363 6.09,10.102c-0,5.739 -1.815,10.103 -6.09,10.103c-4.305,0 -6.12,-4.364 -6.12,-10.103" style="fill:#231f20;fill-rule:nonzero;"/><path d="M138.655,78.079c-0,-1.757 -0.732,-2.928 -2.138,-2.928l-1.171,-0l-0,5.857l1.171,-0c1.406,-0 2.138,-1.172 2.138,-2.929m-0,13.353l-2.108,-7.174l-1.201,-0l-0,7.174l-3.69,-0l-0,-19.532l5.447,-0c3.104,-0 5.329,2.49 5.329,6.062c-0,3.308 -1.405,4.803 -2.518,5.417l2.694,8.053l-3.953,-0Z" style="fill:#231f20;fill-rule:nonzero;"/><path d="M149.841,91.431l-0,-19.531l3.689,0l-0,16.281l4.861,0l-0,3.25l-8.55,0Z" style="fill:#231f20;fill-rule:nonzero;"/><path d="M165.214,76.029l-1.405,8.551l2.781,0l-1.376,-8.551Zm2.401,15.402l-0.586,-3.601l-3.66,0l-0.585,3.601l-3.778,0l4.071,-19.531l4.245,0l4.071,19.531l-3.778,0Z" style="fill:#231f20;fill-rule:nonzero;"/><path d="M184.658,78.079c-0,-1.757 -0.732,-2.928 -2.138,-2.928l-1.171,-0l-0,5.857l1.171,-0c1.406,-0 2.138,-1.172 2.138,-2.929m-0,13.353l-2.108,-7.174l-1.201,-0l-0,7.174l-3.69,-0l-0,-19.532l5.447,-0c3.104,-0 5.329,2.49 5.329,6.062c-0,3.308 -1.405,4.803 -2.518,5.417l2.694,8.053l-3.953,-0Z" style="fill:#231f20;fill-rule:nonzero;"/><path d="M191.13,91.431l-0,-19.531l8.55,0l-0,3.251l-4.861,0l-0,4.714l4.656,0l-0,3.25l-4.656,0l-0,5.066l4.861,0l-0,3.25l-8.55,0Z" style="fill:#231f20;fill-rule:nonzero;"/><path d="M206.913,76.029l-1.405,8.551l2.781,0l-1.376,-8.551Zm2.401,15.402l-0.586,-3.601l-3.66,0l-0.585,3.601l-3.778,0l4.071,-19.531l4.245,0l4.071,19.531l-3.778,0Z" style="fill:#231f20;fill-rule:nonzero;"/><path d="M214.644,91.431l-0,-19.531l3.689,0l-0,16.281l4.861,0l-0,3.25l-8.55,0Z" style="fill:#231f20;fill-rule:nonzero;"/><rect x="225.331" y="71.9" width="3.689" height="19.531" style="fill:#231f20;"/><path d="M231.393,91.431l0,-3.133l4.949,-13.147l-4.949,0l0,-3.251l9.077,0l0,2.987l-5.007,13.294l5.212,0l0,3.25l-9.282,0Z" style="fill:#231f20;fill-rule:nonzero;"/><path d="M247.762,76.029l-1.405,8.551l2.781,0l-1.376,-8.551Zm2.401,15.402l-0.586,-3.601l-3.66,0l-0.585,3.601l-3.778,0l4.071,-19.531l4.245,0l4.071,19.531l-3.778,0Z" style="fill:#231f20;fill-rule:nonzero;"/><path d="M254.849,81.68c-0,-5.827 1.845,-10.102 6.12,-10.102c3.192,0 4.304,2.518 4.919,4.597l-2.957,1.084c-0.381,-1.494 -0.85,-2.401 -1.962,-2.401c-1.728,0 -2.343,2.84 -2.343,6.822c-0,3.982 0.615,6.823 2.343,6.823c1.23,0 1.757,-1.23 2.02,-2.841l2.928,1.084c-0.526,2.225 -1.669,5.037 -4.948,5.037c-4.275,0 -6.12,-4.305 -6.12,-10.103" style="fill:#231f20;fill-rule:nonzero;"/><rect x="268.055" y="71.9" width="3.689" height="19.531" style="fill:#231f20;"/><path d="M280.5,70.114l-2.079,0l2.313,-4.216l2.899,0l-3.133,4.216Zm2.079,11.566c0,-3.894 -0.585,-6.822 -2.313,-6.822c-1.757,0 -2.343,2.928 -2.343,6.822c0,3.836 0.586,6.824 2.343,6.824c1.728,0 2.313,-2.988 2.313,-6.824m-8.433,0c0,-5.739 1.815,-10.101 6.12,-10.101c4.275,0 6.09,4.362 6.09,10.101c0,5.74 -1.815,10.103 -6.09,10.103c-4.305,0 -6.12,-4.363 -6.12,-10.103" style="fill:#231f20;fill-rule:nonzero;"/><path d="M296.459,91.431l-3.982,-11.186l0,11.186l-3.69,0l0,-19.531l3.69,0l3.748,10.805l0,-10.805l3.689,0l0,19.531l-3.455,0Z" style="fill:#231f20;fill-rule:nonzero;"/><path d="M314.673,78.079c-0,-1.757 -0.732,-2.928 -2.138,-2.928l-1.171,-0l-0,5.857l1.171,-0c1.406,-0 2.138,-1.172 2.138,-2.929m-6.999,13.353l-0,-19.532l5.271,-0c3.778,-0 5.505,2.9 5.505,6.179c-0,3.279 -1.727,6.179 -5.505,6.179l-1.581,-0l-0,7.174l-3.69,-0Z" style="fill:#231f20;fill-rule:nonzero;"/><path d="M320.588,91.431l0,-19.531l3.689,0l0,16.281l4.861,0l0,3.25l-8.55,0Z" style="fill:#231f20;fill-rule:nonzero;"/><path d="M331.276,91.431l0,-19.531l8.55,0l0,3.251l-4.861,0l0,4.714l4.656,0l0,3.25l-4.656,0l0,5.066l4.861,0l0,3.25l-8.55,0Z" style="fill:#231f20;fill-rule:nonzero;"/><path d="M350.046,91.431l-3.982,-11.186l0,11.186l-3.69,0l0,-19.531l3.69,0l3.748,10.805l0,-10.805l3.69,0l0,19.531l-3.456,0Z" style="fill:#231f20;fill-rule:nonzero;"/><path d="M361.233,76.029l-1.405,8.551l2.781,0l-1.376,-8.551Zm2.401,15.402l-0.586,-3.601l-3.66,0l-0.585,3.601l-3.778,0l4.071,-19.531l4.245,0l4.071,19.531l-3.778,0Z" style="fill:#231f20;fill-rule:nonzero;"/><path d="M381.408,81.68c0,-4.305 -0.937,-6.529 -2.84,-6.529l-1.201,0l0,13.03l1.201,0c1.903,0 2.84,-2.343 2.84,-6.501m-7.73,9.751l0,-19.531l4.86,0c4.715,0 6.647,4.217 6.647,9.78c0,5.622 -1.903,9.751 -6.617,9.751l-4.89,0Z" style="fill:#231f20;fill-rule:nonzero;"/><path d="M387.587,91.431l0,-19.531l8.55,0l0,3.251l-4.861,0l0,4.714l4.656,0l0,3.25l-4.656,0l0,5.066l4.861,0l0,3.25l-8.55,0Z" style="fill:#231f20;fill-rule:nonzero;"/><path d="M398.686,91.431l-0,-19.531l3.689,0l-0,16.281l4.861,0l-0,3.25l-8.55,0Z" style="fill:#231f20;fill-rule:nonzero;"/><path d="M412.917,89.85l1.581,-2.899c0.82,1.025 2.079,1.552 3.221,1.552c1.171,0 1.962,-0.879 1.962,-2.137c0,-3.455 -6.208,-3.426 -6.208,-9.341c0,-2.929 1.991,-5.446 5.417,-5.446c1.669,0 3.192,0.555 4.246,1.581l-1.406,2.839c-0.761,-0.79 -1.668,-1.141 -2.693,-1.141c-1.055,0 -1.816,0.79 -1.816,1.962c0,3.045 6.208,3.455 6.208,9.311c0,3.28 -2.167,5.652 -5.476,5.652c-2.137,0 -3.777,-0.674 -5.036,-1.933" style="fill:#231f20;fill-rule:nonzero;"/><path d="M425.684,91.431l0,-19.531l8.55,0l0,3.251l-4.861,0l0,4.714l4.656,0l0,3.25l-4.656,0l0,5.066l4.861,0l0,3.25l-8.55,0Z" style="fill:#231f20;fill-rule:nonzero;"/><path d="M443.781,78.079c-0,-1.757 -0.732,-2.928 -2.138,-2.928l-1.171,-0l-0,5.857l1.171,-0c1.406,-0 2.138,-1.172 2.138,-2.929m-0,13.353l-2.108,-7.174l-1.201,-0l-0,7.174l-3.69,-0l-0,-19.532l5.447,-0c3.104,-0 5.329,2.49 5.329,6.062c-0,3.308 -1.405,4.803 -2.518,5.417l2.694,8.053l-3.953,-0Z" style="fill:#231f20;fill-rule:nonzero;"/></g></svg>